<?xml version="1.0" encoding="UTF-8"?>
<svg id="Layer_1" data-name="Layer 1" xmlns="http://www.w3.org/2000/svg" viewBox="0 0 923.53 377.48">
  <defs>
    <style>
      .cls-1 {
        fill: #c0272d;
      }

      .cls-2 {
        fill: gray;
      }
    </style>
  </defs>
  <g>
    <g>
      <path class="cls-1" d="M486.5,229.42l-56.42-60.91v60.91h-28.21V86.33h28.21v59.07l52.33-59.07h35.98l-62.96,69.7,68.89,73.38h-37.82Z"/>
      <path class="cls-1" d="M566.63,111.68v39.65h71.13v24.73h-71.13v53.35h-28.21V86.33h103.22v25.35h-75.02Z"/>
      <path class="cls-1" d="M720.14,181.38h-24.73v48.04h-28.21V86.33h68.07c31.07,0,51.1,19.22,51.1,47.83,0,22.89-12.88,39.45-34.95,45.17l42.31,50.08h-34.54l-39.04-48.04Zm13.29-69.91h-38.22v45.58h38.22c15.74,0,24.94-8.38,24.94-22.69s-9.2-22.89-24.94-22.89Z"/>
      <path class="cls-1" d="M923.53,204.68v24.73h-108.74V86.33h106.9v24.53h-79.1v34.14h75.42v23.92h-75.42v35.77h80.94Z"/>
    </g>
    <g>
      <path class="cls-2" d="M435.69,263.64c0,8.58-5.84,14.25-14.78,14.25h-12.21v12.38h-6.83v-40.88h19.04c8.94,0,14.78,5.66,14.78,14.25Zm-6.78,0c0-4.85-3.33-8-8.35-8h-11.92v16.06h11.92c5.02,0,8.35-3.15,8.35-8.06Z"/>
      <path class="cls-2" d="M459.39,273.74v16.53h-6.78v-16.53l-16.06-24.35h8.12l11.33,17.87,11.68-17.87h8.23l-16.53,24.35Z"/>
      <path class="cls-2" d="M510.72,255.7h-13.26v34.57h-6.83v-34.57h-13.26v-6.31h33.35v6.31Z"/>
      <path class="cls-2" d="M551.71,249.39v40.88h-6.83v-17.58h-21.32v17.58h-6.83v-40.88h6.83v16.94h21.32v-16.94h6.83Z"/>
      <path class="cls-2" d="M559.29,269.83c0-12.73,8.47-21.32,21.08-21.32s21.03,8.58,21.03,21.32-8.47,21.32-21.03,21.32-21.08-8.58-21.08-21.32Zm35.22,0c0-8.93-5.72-15.01-14.13-15.01s-14.19,6.07-14.19,15.01,5.72,15.01,14.19,15.01,14.13-6.07,14.13-15.01Z"/>
      <path class="cls-2" d="M644.02,249.39v40.88h-6.19l-22.08-29.2,.06,13.02v16.18h-6.83v-40.88h6.19l22.08,29.2-.06-12.2v-17h6.83Z"/>
      <path class="cls-2" d="M668.48,249.39h6.83v34.52h21.55v6.37h-28.38v-40.88Z"/>
      <path class="cls-2" d="M702.93,249.39h6.83v40.88h-6.83v-40.88Z"/>
      <path class="cls-2" d="M754.03,278.94c0,7.24-5.32,11.33-14.72,11.33h-19.51v-40.88h19.51c8.35,0,13.43,4.03,13.43,10.8,0,4.09-1.93,7.3-5.2,8.94,3.68,1.34,6.48,5.43,6.48,9.81Zm-27.45-23.48v10.8h12.97c4.09,0,6.48-1.98,6.48-5.37s-2.45-5.43-6.48-5.43h-12.97Zm20.68,22.6c0-3.68-2.69-5.9-7.12-5.9h-13.55v11.92h13.49c4.44,0,7.18-2.28,7.18-6.02Z"/>
      <path class="cls-2" d="M776.85,276.31h-8.29v13.96h-6.83v-40.88h19.16c8.76,0,14.49,5.37,14.49,13.49,0,6.78-4.03,11.62-10.57,13.02l12.44,14.37h-8.53l-11.86-13.96Zm3.97-20.62h-12.32v14.36h12.32c4.85,0,7.77-2.69,7.77-7.18s-2.92-7.18-7.77-7.18Z"/>
      <path class="cls-2" d="M832.27,281.8h-21.96l-3.74,8.47h-7.36l18.34-40.88h7.59l18.28,40.88h-7.42l-3.74-8.47Zm-19.33-6.19h16.7l-8.35-19.33-8.35,19.33Z"/>
      <path class="cls-2" d="M863.97,276.31h-8.29v13.96h-6.83v-40.88h19.16c8.76,0,14.49,5.37,14.49,13.49,0,6.78-4.03,11.62-10.57,13.02l12.44,14.37h-8.53l-11.86-13.96Zm3.97-20.62h-12.32v14.36h12.32c4.85,0,7.77-2.69,7.77-7.18s-2.92-7.18-7.77-7.18Z"/>
      <path class="cls-2" d="M907,273.74v16.53h-6.78v-16.53l-16.06-24.35h8.12l11.33,17.87,11.68-17.87h8.23l-16.53,24.35Z"/>
    </g>
  </g>
  <g>
    <path class="cls-1" d="M350.12,175.21c-.78-13.88-3.97-27.36-8.69-40.44-4.53-12.56-10.63-24.27-18.82-34.8-11.31-14.56-25.1-25.68-43.37-30.17-15.59-3.81-30.57-2.35-43.87,7.22-22.43,16.15-23.11,46.6-3.53,63.67,2.83,2.47,6,4.59,9.11,6.96-3.39,7.3-8.91,12.94-15.49,17.61-7.64,5.36-15.93,8.99-25.34,8.91-.3,0-.58,0-.88-.02h-.58c-.34-.04-.7-.04-1.04-.08h-.16c-.98-.08-1.93-.16-2.87-.28h-10.14c-.93,0-1.85,.06-2.78,.15s-1.9,.15-2.85,.21h-.58c-.3,.04-.58,.04-.86,.04-9.45,.06-17.73-3.57-25.34-8.93-6.58-4.67-12.12-10.31-15.51-17.61,3.11-2.35,6.28-4.47,9.11-6.94,19.58-17.07,18.88-47.54-3.53-63.67-13.3-9.59-28.28-11.03-43.87-7.22-18.29,4.47-32.06,15.59-43.35,30.15-8.22,10.55-14.32,22.23-18.84,34.8-4.73,13.1-7.92,26.56-8.69,40.44-.58,10.23,.3,20.44,2.23,30.51,4.57,23.69,15.09,44.15,32.9,60.52,11.53,10.61,25.04,17.31,40.96,18.17,16.95,.9,31.47-4.33,42.71-17.55,11.63-13.68,12.56-34.82,2.17-49.43-3.87-5.48-8.89-9.61-14.86-13.42,2.11-1.93,3.93-3.97,6.08-5.54,2.11-1.6,4.57-2.71,6.82-4.03-2.89-.98-6.74-.88-9.79,.38-6.48,2.67-10.45,7.78-13.44,13.82-4.23,8.37-5.82,17.39-6.22,26.84-.32-.46-.68-.74-.74-1.08-1.46-8.28-2.39-16.55-.52-24.89,3.05-13.66,14.26-21.16,27.18-18.05,7.3,1.75,12.9,6.24,17.29,12.22,5.74,7.9,9.35,16.83,11.29,26.3,1.43,6.97,2.39,70.73,3,105.61,.06,3.4,2.83,6.11,6.23,6.11h0c3.44,0,6.24-2.79,6.24-6.23-.01-29.23-.09-83.15-.2-87.13-.1-3.67-.28-7.34-.48-11.01-.42-7.72-1.91-15.45-3.71-23.01-.18-.76-.38-1.5-.58-2.23-.96-3.43-2.15-6.72-3.69-9.83-.28-.54-.56-1.1-.86-1.64-2.77-5.08-6.46-9.63-11.33-13.4-5.08-3.89-10.51-7.32-15.75-11.03-6.54-4.65-13.7-8.67-19.44-14.18-11.51-10.99-17.09-24.29-12.02-40.46,1.26-3.99,3.01-7.72,5.86-10.87,.04,.66-.06,1.24-.24,1.79-2.59,8.26-3.01,16.71-.52,24.93,4.63,15.27,13.76,27.18,27.76,35.27,7.08,4.11,14.04,8.45,20.8,13.1,1.58,1.08,3.21,1.99,4.89,2.69,.28,.14,.56,.26,.86,.36,.82,.32,1.64,.58,2.49,.8,0,0,.62,.24,1.6,.42,.44,.1,.94,.18,1.5,.22h.04c.66,.08,1.38,.08,2.15,.04,2.23,0,5.02-.06,6.74-.1,1.26-.02,2.51-.18,3.71-.48,.34-.1,.68-.2,1-.3,.62-.18,1.18-.38,1.77-.62,.3-.1,.58-.22,.88-.34,1.66-.7,3.29-1.62,4.87-2.69,6.76-4.65,13.72-8.99,20.82-13.1,13.98-8.1,23.13-20,27.74-35.27,2.49-8.22,2.07-16.67-.5-24.93-.2-.56-.3-1.14-.24-1.81,2.83,3.15,4.59,6.9,5.84,10.89,5.06,16.15-.54,29.47-12.02,40.46-5.74,5.48-12.9,9.53-19.44,14.18-5.24,3.71-10.67,7.14-15.73,11.03-4.87,3.75-8.57,8.3-11.33,13.38-.18,.31-.34,.62-.5,.93-.73,1.4-1.4,2.83-1.98,4.31-.78,2.01-1.51,4.1-2.07,6.25-.22,.74-.42,1.48-.58,2.21-1.81,7.56-3.31,15.31-3.73,23.03-.02,.32-.04,.62-.04,.96-.2,3.33-.34,6.7-.42,10.05-.13,4-.21,57.9-.22,87.13,0,3.44,2.79,6.23,6.24,6.23h0c3.4,0,6.18-2.71,6.23-6.11,.61-34.9,1.57-98.66,3-105.63,1.93-9.45,5.54-18.38,11.29-26.28,4.37-5.98,9.97-10.47,17.29-12.22,12.94-3.11,24.13,4.39,27.2,18.05,1.87,8.34,.92,16.61-.56,24.89-.04,.34-.4,.62-.7,1.08-.42-9.47-2.01-18.46-6.22-26.86-3.03-6.02-6.98-11.13-13.44-13.8-3.07-1.26-6.92-1.38-9.81-.38,2.27,1.3,4.71,2.43,6.82,4.01,2.15,1.6,3.99,3.63,6.08,5.56-5.96,3.81-10.97,7.94-14.86,13.42-10.39,14.62-9.45,35.75,2.17,49.43,11.25,13.22,25.76,18.44,42.71,17.55,15.91-.86,29.45-7.56,40.96-18.17,17.81-16.37,28.34-36.83,32.9-60.52,1.93-10.09,2.81-20.28,2.23-30.51ZM44.26,219.07c-11.96-25.76-11.07-62.41,3.87-85.09-7.48,28.45-10.69,56.53-3.87,85.09Zm89.67-.76c8.18,5.18,12.22,15.13,10.51,25.06-1.36,7.78-5.26,13.92-11.51,18.84,11.57-17.77,7.98-33-8.14-46.6,3.83,.04,6.6,1.06,9.13,2.69Zm-22.69-84.21c-1.4-6.34-2.79-12.66-4.27-19.42,4.11,6.14,5.22,12.56,4.27,19.42Zm-53.54-3.59c1.48-8.37,4.03-16.35,7.9-23.95-.18-.1-.38-.22-.54-.32-2.77,3.03-5.52,6.08-8.3,9.11,1.14-15.06,22.95-33.82,42.57-36.05-21.22,11.65-32.24,30.73-41.64,51.21Zm61.66,57.53c-2.83,2.61-5.16,5.72-7.84,8.53-3.71,3.93-7.4,7.88-11.33,11.59-6.12,5.8-12.42,11.41-18.66,17.07-.34,.3-.68,.58-1.44,1.32,2.65-4.99,5.02-9.41,7.72-14.38h-12.32c-.1-.32-.2-.62-.32-.94,16.09-1.73,27.38-10.61,35.57-24.09-3.99-1.56-8.55-1.85-13.04-1.06-11.49,2.05-22.71,5.08-33.42,9.87-.12,.04-.28,0-.76,0,.56-.52,.9-.94,1.32-1.22,8.59-5.7,17.37-11.17,27.04-14.8,12.04-4.53,23.81-3.29,35.19,2.85-2.69,1.79-5.48,3.21-7.72,5.24Zm5.16-17.81c.18,.22,.28,.5,.42,.74-4.99-.56-9.85-1.48-14.74-1.52-5.3-.02-10.63,.54-15.89,1.3-7.16,1.06-14.26,1.81-21.46,.56-.76-.12-1.5-.32-1.62-.36,9.91-2.67,20.34-5.48,31.23-8.41-10.81-6.96-20.78-15-34.34-15.07,15.93-3.41,29.25,2.41,41.83,11.55-3.27-15.47-11.88-26.78-25.96-34.2,.96,.16,1.93,.28,2.91,.48,.98,.2,1.95,.44,2.91,.7,12.12,3.37,19.72,11.37,23.69,23.11,2.59,7.62,6.22,14.68,11.01,21.14Zm1.75-84.29c10.53,.48,18.7,6.66,21.85,16.17,3.89,11.72-.66,25.9-10.73,32.84,6.14-8.45,8.04-17.51,6.02-27.08-2.05-9.73-8.2-16.73-17.15-21.93Zm107.78,21.93c-2.01,9.57-.12,18.62,6.02,27.06-10.05-6.92-14.62-21.12-10.73-32.82,3.15-9.53,11.35-15.69,21.85-16.17-8.93,5.18-15.11,12.2-17.15,21.93Zm10.49,154.32c-6.26-4.91-10.15-11.05-11.51-18.82-1.69-9.93,2.33-19.88,10.51-25.08,2.53-1.62,5.3-2.63,9.13-2.67-16.09,13.58-19.7,28.83-8.14,46.58Zm25.96-147.52c-1.48,6.76-2.87,13.08-4.27,19.42-.96-6.86,.16-13.3,4.27-19.42Zm-17.55,55.55c4.79-6.46,8.41-13.54,11.01-21.14,3.97-11.74,11.57-19.74,23.69-23.11,.96-.26,1.93-.5,2.93-.7,.96-.2,1.93-.32,2.91-.48-14.1,7.42-22.71,18.72-25.98,34.2,12.58-9.13,25.9-14.98,41.83-11.55-13.56,.08-23.53,8.12-34.34,15.05,10.89,2.95,21.32,5.74,31.23,8.43-.12,.04-.86,.24-1.62,.36-7.2,1.26-14.3,.5-21.46-.56-5.24-.76-10.59-1.32-15.89-1.3-4.89,.02-9.75,.96-14.74,1.5,.14-.24,.26-.5,.42-.72Zm60.22,25.72c-10.67-4.79-21.89-7.82-33.4-9.89-4.49-.8-9.05-.48-13.06,1.08,8.22,13.48,19.5,22.35,35.59,24.09-.12,.3-.22,.62-.34,.94h-12.3c2.69,4.97,5.06,9.39,7.72,14.36-.78-.72-1.1-1-1.44-1.3-6.22-5.68-12.54-11.29-18.66-17.07-3.93-3.71-7.62-7.66-11.33-11.59-2.67-2.81-5.01-5.94-7.86-8.53-2.23-2.03-5.01-3.45-7.72-5.24,11.43-6.14,23.19-7.38,35.21-2.87,9.67,3.65,18.44,9.11,27.04,14.82,.42,.28,.76,.7,1.32,1.22-.46,0-.64,.04-.78,0Zm6.6-65.46c-9.39-20.48-20.4-39.56-41.62-51.19,19.58,2.23,41.4,21,42.55,36.03-2.75-3.01-5.52-6.06-8.3-9.09-.16,.1-.36,.2-.54,.32,3.87,7.58,6.42,15.55,7.9,23.93Zm13.44,88.57c6.82-28.55,3.61-56.63-3.85-85.09,14.94,22.67,15.83,59.3,3.85,85.09Z"/>
    <path class="cls-1" d="M188.74,377.48C84.67,377.48,0,292.81,0,188.74S84.67,0,188.74,0s188.74,84.67,188.74,188.74-84.67,188.74-188.74,188.74Zm0-367.51C90.16,9.97,9.97,90.17,9.97,188.74s80.19,178.77,178.77,178.77,178.77-80.2,178.77-178.77S287.31,9.97,188.74,9.97Z"/>
  </g>
</svg>