<?xml version="1.0" encoding="utf-8" standalone="no"?>
<!DOCTYPE svg PUBLIC "-//W3C//DTD SVG 1.1//EN"
  "http://www.w3.org/Graphics/SVG/1.1/DTD/svg11.dtd">
<svg xmlns:xlink="http://www.w3.org/1999/xlink" width="695.70375pt" height="416.77pt" viewBox="0 0 695.70375 416.77" xmlns="http://www.w3.org/2000/svg" version="1.1">
 <metadata>
  <rdf:RDF xmlns:dc="http://purl.org/dc/elements/1.1/" xmlns:cc="http://creativecommons.org/ns#" xmlns:rdf="http://www.w3.org/1999/02/22-rdf-syntax-ns#">
   <cc:Work>
    <dc:type rdf:resource="http://purl.org/dc/dcmitype/StillImage"/>
    <dc:date>2025-06-25T23:04:33.767384</dc:date>
    <dc:format>image/svg+xml</dc:format>
    <dc:creator>
     <cc:Agent>
      <dc:title>Matplotlib v3.9.0, https://matplotlib.org/</dc:title>
     </cc:Agent>
    </dc:creator>
   </cc:Work>
  </rdf:RDF>
 </metadata>
 <defs>
  <style type="text/css">*{stroke-linejoin: round; stroke-linecap: butt}</style>
 </defs>
 <g id="figure_1">
  <g id="patch_1">
   <path d="M 0 416.77 
L 695.70375 416.77 
L 695.70375 0 
L 0 0 
z
" style="fill: #ffffff"/>
  </g>
  <g id="axes_1">
   <g id="patch_2">
    <path d="M 55.26375 164.278125 
L 688.50375 164.278125 
L 688.50375 22.318125 
L 55.26375 22.318125 
z
" style="fill: #ffffff"/>
   </g>
   <g id="patch_3">
    <path d="M 74.110179 164.278125 
L 141.957321 164.278125 
L 141.957321 122.959132 
L 74.110179 122.959132 
z
" clip-path="url(#p856ca1bb3a)" style="fill: #00bfc4"/>
   </g>
   <g id="patch_4">
    <path d="M 149.495893 164.278125 
L 217.343036 164.278125 
L 217.343036 146.970255 
L 149.495893 146.970255 
z
" clip-path="url(#p856ca1bb3a)" style="fill: #00bfc4"/>
   </g>
   <g id="patch_5">
    <path d="M 224.881607 164.278125 
L 292.72875 164.278125 
L 292.72875 147.395858 
L 224.881607 147.395858 
z
" clip-path="url(#p856ca1bb3a)" style="fill: #00bfc4"/>
   </g>
   <g id="patch_6">
    <path d="M 300.267321 164.278125 
L 368.114464 164.278125 
L 368.114464 143.671829 
L 300.267321 143.671829 
z
" clip-path="url(#p856ca1bb3a)" style="fill: #00bfc4"/>
   </g>
   <g id="patch_7">
    <path d="M 375.653036 164.278125 
L 443.500179 164.278125 
L 443.500179 149.346541 
L 375.653036 149.346541 
z
" clip-path="url(#p856ca1bb3a)" style="fill: #00bfc4"/>
   </g>
   <g id="patch_8">
    <path d="M 451.03875 164.278125 
L 518.885893 164.278125 
L 518.885893 160.554096 
L 451.03875 160.554096 
z
" clip-path="url(#p856ca1bb3a)" style="fill: #00bfc4"/>
   </g>
   <g id="patch_9">
    <path d="M 526.424464 164.278125 
L 594.271607 164.278125 
L 594.271607 163.426918 
L 526.424464 163.426918 
z
" clip-path="url(#p856ca1bb3a)" style="fill: #00bfc4"/>
   </g>
   <g id="patch_10">
    <path d="M 601.810179 164.278125 
L 669.657321 164.278125 
L 669.657321 164.207191 
L 601.810179 164.207191 
z
" clip-path="url(#p856ca1bb3a)" style="fill: #00bfc4"/>
   </g>
   <g id="patch_11">
    <path d="M 74.110179 122.959132 
L 141.957321 122.959132 
L 141.957321 106.396068 
L 74.110179 106.396068 
z
" clip-path="url(#p856ca1bb3a)" style="fill: #f8766d"/>
   </g>
   <g id="patch_12">
    <path d="M 149.495893 146.970255 
L 217.343036 146.970255 
L 217.343036 122.036992 
L 149.495893 122.036992 
z
" clip-path="url(#p856ca1bb3a)" style="fill: #f8766d"/>
   </g>
   <g id="patch_13">
    <path d="M 224.881607 147.395858 
L 292.72875 147.395858 
L 292.72875 110.261966 
L 224.881607 110.261966 
z
" clip-path="url(#p856ca1bb3a)" style="fill: #f8766d"/>
   </g>
   <g id="patch_14">
    <path d="M 300.267321 143.671829 
L 368.114464 143.671829 
L 368.114464 89.65567 
L 300.267321 89.65567 
z
" clip-path="url(#p856ca1bb3a)" style="fill: #f8766d"/>
   </g>
   <g id="patch_15">
    <path d="M 375.653036 149.346541 
L 443.500179 149.346541 
L 443.500179 95.117579 
L 375.653036 95.117579 
z
" clip-path="url(#p856ca1bb3a)" style="fill: #f8766d"/>
   </g>
   <g id="patch_16">
    <path d="M 451.03875 160.554096 
L 518.885893 160.554096 
L 518.885893 117.426289 
L 451.03875 117.426289 
z
" clip-path="url(#p856ca1bb3a)" style="fill: #f8766d"/>
   </g>
   <g id="patch_17">
    <path d="M 526.424464 163.426918 
L 594.271607 163.426918 
L 594.271607 153.283372 
L 526.424464 153.283372 
z
" clip-path="url(#p856ca1bb3a)" style="fill: #f8766d"/>
   </g>
   <g id="patch_18">
    <path d="M 601.810179 164.207191 
L 669.657321 164.207191 
L 669.657321 163.604253 
L 601.810179 163.604253 
z
" clip-path="url(#p856ca1bb3a)" style="fill: #f8766d"/>
   </g>
   <g id="patch_19">
    <path d="M 74.110179 106.396068 
L 141.957321 106.396068 
L 141.957321 103.771514 
L 74.110179 103.771514 
z
" clip-path="url(#p856ca1bb3a)" style="fill: #ffcccc"/>
   </g>
   <g id="patch_20">
    <path d="M 149.495893 122.036992 
L 217.343036 122.036992 
L 217.343036 117.390822 
L 149.495893 117.390822 
z
" clip-path="url(#p856ca1bb3a)" style="fill: #ffcccc"/>
   </g>
   <g id="patch_21">
    <path d="M 224.881607 110.261966 
L 292.72875 110.261966 
L 292.72875 100.437621 
L 224.881607 100.437621 
z
" clip-path="url(#p856ca1bb3a)" style="fill: #ffcccc"/>
   </g>
   <g id="patch_22">
    <path d="M 300.267321 89.65567 
L 368.114464 89.65567 
L 368.114464 73.447275 
L 300.267321 73.447275 
z
" clip-path="url(#p856ca1bb3a)" style="fill: #ffcccc"/>
   </g>
   <g id="patch_23">
    <path d="M 375.653036 95.117579 
L 443.500179 95.117579 
L 443.500179 65.218943 
L 375.653036 65.218943 
z
" clip-path="url(#p856ca1bb3a)" style="fill: #ffcccc"/>
   </g>
   <g id="patch_24">
    <path d="M 451.03875 117.426289 
L 518.885893 117.426289 
L 518.885893 90.755145 
L 451.03875 90.755145 
z
" clip-path="url(#p856ca1bb3a)" style="fill: #ffcccc"/>
   </g>
   <g id="patch_25">
    <path d="M 526.424464 153.283372 
L 594.271607 153.283372 
L 594.271607 147.431325 
L 526.424464 147.431325 
z
" clip-path="url(#p856ca1bb3a)" style="fill: #ffcccc"/>
   </g>
   <g id="patch_26">
    <path d="M 601.810179 163.604253 
L 669.657321 163.604253 
L 669.657321 163.320517 
L 601.810179 163.320517 
z
" clip-path="url(#p856ca1bb3a)" style="fill: #ffcccc"/>
   </g>
   <g id="patch_27">
    <path d="M 74.110179 103.771514 
L 141.957321 103.771514 
L 141.957321 101.359762 
L 74.110179 101.359762 
z
" clip-path="url(#p856ca1bb3a)" style="fill: #ff6666"/>
   </g>
   <g id="patch_28">
    <path d="M 149.495893 117.390822 
L 217.343036 117.390822 
L 217.343036 113.879594 
L 149.495893 113.879594 
z
" clip-path="url(#p856ca1bb3a)" style="fill: #ff6666"/>
   </g>
   <g id="patch_29">
    <path d="M 224.881607 100.437621 
L 292.72875 100.437621 
L 292.72875 94.337307 
L 224.881607 94.337307 
z
" clip-path="url(#p856ca1bb3a)" style="fill: #ff6666"/>
   </g>
   <g id="patch_30">
    <path d="M 300.267321 73.447275 
L 368.114464 73.447275 
L 368.114464 62.275187 
L 300.267321 62.275187 
z
" clip-path="url(#p856ca1bb3a)" style="fill: #ff6666"/>
   </g>
   <g id="patch_31">
    <path d="M 375.653036 65.218943 
L 443.500179 65.218943 
L 443.500179 47.698272 
L 375.653036 47.698272 
z
" clip-path="url(#p856ca1bb3a)" style="fill: #ff6666"/>
   </g>
   <g id="patch_32">
    <path d="M 451.03875 90.755145 
L 518.885893 90.755145 
L 518.885893 75.078755 
L 451.03875 75.078755 
z
" clip-path="url(#p856ca1bb3a)" style="fill: #ff6666"/>
   </g>
   <g id="patch_33">
    <path d="M 526.424464 147.431325 
L 594.271607 147.431325 
L 594.271607 143.068891 
L 526.424464 143.068891 
z
" clip-path="url(#p856ca1bb3a)" style="fill: #ff6666"/>
   </g>
   <g id="patch_34">
    <path d="M 601.810179 163.320517 
L 669.657321 163.320517 
L 669.657321 163.072249 
L 601.810179 163.072249 
z
" clip-path="url(#p856ca1bb3a)" style="fill: #ff6666"/>
   </g>
   <g id="patch_35">
    <path d="M 74.110179 101.359762 
L 141.957321 101.359762 
L 141.957321 99.018943 
L 74.110179 99.018943 
z
" clip-path="url(#p856ca1bb3a)" style="fill: #cc0000"/>
   </g>
   <g id="patch_36">
    <path d="M 149.495893 113.879594 
L 217.343036 113.879594 
L 217.343036 110.332899 
L 149.495893 110.332899 
z
" clip-path="url(#p856ca1bb3a)" style="fill: #cc0000"/>
   </g>
   <g id="patch_37">
    <path d="M 224.881607 94.337307 
L 292.72875 94.337307 
L 292.72875 88.02419 
L 224.881607 88.02419 
z
" clip-path="url(#p856ca1bb3a)" style="fill: #cc0000"/>
   </g>
   <g id="patch_38">
    <path d="M 300.267321 62.275187 
L 368.114464 62.275187 
L 368.114464 52.025239 
L 300.267321 52.025239 
z
" clip-path="url(#p856ca1bb3a)" style="fill: #cc0000"/>
   </g>
   <g id="patch_39">
    <path d="M 375.653036 47.698272 
L 443.500179 47.698272 
L 443.500179 36.277915 
L 375.653036 36.277915 
z
" clip-path="url(#p856ca1bb3a)" style="fill: #cc0000"/>
   </g>
   <g id="patch_40">
    <path d="M 451.03875 75.078755 
L 518.885893 75.078755 
L 518.885893 67.311493 
L 451.03875 67.311493 
z
" clip-path="url(#p856ca1bb3a)" style="fill: #cc0000"/>
   </g>
   <g id="patch_41">
    <path d="M 526.424464 143.068891 
L 594.271607 143.068891 
L 594.271607 141.366478 
L 526.424464 141.366478 
z
" clip-path="url(#p856ca1bb3a)" style="fill: #cc0000"/>
   </g>
   <g id="patch_42">
    <path d="M 601.810179 163.072249 
L 669.657321 163.072249 
L 669.657321 162.930381 
L 601.810179 162.930381 
z
" clip-path="url(#p856ca1bb3a)" style="fill: #cc0000"/>
   </g>
   <g id="patch_43">
    <path d="M 74.110179 99.018943 
L 141.957321 99.018943 
L 141.957321 96.749059 
L 74.110179 96.749059 
z
" clip-path="url(#p856ca1bb3a)" style="fill: #660000"/>
   </g>
   <g id="patch_44">
    <path d="M 149.495893 110.332899 
L 217.343036 110.332899 
L 217.343036 105.899531 
L 149.495893 105.899531 
z
" clip-path="url(#p856ca1bb3a)" style="fill: #660000"/>
   </g>
   <g id="patch_45">
    <path d="M 224.881607 88.02419 
L 292.72875 88.02419 
L 292.72875 82.172144 
L 224.881607 82.172144 
z
" clip-path="url(#p856ca1bb3a)" style="fill: #660000"/>
   </g>
   <g id="patch_46">
    <path d="M 300.267321 52.025239 
L 368.114464 52.025239 
L 368.114464 43.229437 
L 300.267321 43.229437 
z
" clip-path="url(#p856ca1bb3a)" style="fill: #660000"/>
   </g>
   <g id="patch_47">
    <path d="M 375.653036 36.277915 
L 443.500179 36.277915 
L 443.500179 29.078125 
L 375.653036 29.078125 
z
" clip-path="url(#p856ca1bb3a)" style="fill: #660000"/>
   </g>
   <g id="patch_48">
    <path d="M 451.03875 67.311493 
L 518.885893 67.311493 
L 518.885893 64.013067 
L 451.03875 64.013067 
z
" clip-path="url(#p856ca1bb3a)" style="fill: #660000"/>
   </g>
   <g id="patch_49">
    <path d="M 526.424464 141.366478 
L 594.271607 141.366478 
L 594.271607 140.728073 
L 526.424464 140.728073 
z
" clip-path="url(#p856ca1bb3a)" style="fill: #660000"/>
   </g>
   <g id="patch_50">
    <path d="M 601.810179 164.278125 
L 669.657321 164.278125 
L 669.657321 164.278125 
L 601.810179 164.278125 
z
" clip-path="url(#p856ca1bb3a)" style="fill: #660000"/>
   </g>
   <g id="matplotlib.axis_1">
    <g id="xtick_1">
     <g id="line2d_1">
      <defs>
       <path id="mf641da2834" d="M 0 0 
L 0 3.5 
" style="stroke: #000000; stroke-width: 0.8"/>
      </defs>
      <g>
       <use xlink:href="#mf641da2834" x="108.03375" y="164.278125" style="stroke: #000000; stroke-width: 0.8"/>
      </g>
     </g>
     <g id="text_1">
      <!-- 18-29 -->
      <g transform="translate(93.504844 178.876562) scale(0.1 -0.1)">
       <defs>
        <path id="DejaVuSans-31" d="M 794 531 
L 1825 531 
L 1825 4091 
L 703 3866 
L 703 4441 
L 1819 4666 
L 2450 4666 
L 2450 531 
L 3481 531 
L 3481 0 
L 794 0 
L 794 531 
z
" transform="scale(0.015625)"/>
        <path id="DejaVuSans-38" d="M 2034 2216 
Q 1584 2216 1326 1975 
Q 1069 1734 1069 1313 
Q 1069 891 1326 650 
Q 1584 409 2034 409 
Q 2484 409 2743 651 
Q 3003 894 3003 1313 
Q 3003 1734 2745 1975 
Q 2488 2216 2034 2216 
z
M 1403 2484 
Q 997 2584 770 2862 
Q 544 3141 544 3541 
Q 544 4100 942 4425 
Q 1341 4750 2034 4750 
Q 2731 4750 3128 4425 
Q 3525 4100 3525 3541 
Q 3525 3141 3298 2862 
Q 3072 2584 2669 2484 
Q 3125 2378 3379 2068 
Q 3634 1759 3634 1313 
Q 3634 634 3220 271 
Q 2806 -91 2034 -91 
Q 1263 -91 848 271 
Q 434 634 434 1313 
Q 434 1759 690 2068 
Q 947 2378 1403 2484 
z
M 1172 3481 
Q 1172 3119 1398 2916 
Q 1625 2713 2034 2713 
Q 2441 2713 2670 2916 
Q 2900 3119 2900 3481 
Q 2900 3844 2670 4047 
Q 2441 4250 2034 4250 
Q 1625 4250 1398 4047 
Q 1172 3844 1172 3481 
z
" transform="scale(0.015625)"/>
        <path id="DejaVuSans-2d" d="M 313 2009 
L 1997 2009 
L 1997 1497 
L 313 1497 
L 313 2009 
z
" transform="scale(0.015625)"/>
        <path id="DejaVuSans-32" d="M 1228 531 
L 3431 531 
L 3431 0 
L 469 0 
L 469 531 
Q 828 903 1448 1529 
Q 2069 2156 2228 2338 
Q 2531 2678 2651 2914 
Q 2772 3150 2772 3378 
Q 2772 3750 2511 3984 
Q 2250 4219 1831 4219 
Q 1534 4219 1204 4116 
Q 875 4013 500 3803 
L 500 4441 
Q 881 4594 1212 4672 
Q 1544 4750 1819 4750 
Q 2544 4750 2975 4387 
Q 3406 4025 3406 3419 
Q 3406 3131 3298 2873 
Q 3191 2616 2906 2266 
Q 2828 2175 2409 1742 
Q 1991 1309 1228 531 
z
" transform="scale(0.015625)"/>
        <path id="DejaVuSans-39" d="M 703 97 
L 703 672 
Q 941 559 1184 500 
Q 1428 441 1663 441 
Q 2288 441 2617 861 
Q 2947 1281 2994 2138 
Q 2813 1869 2534 1725 
Q 2256 1581 1919 1581 
Q 1219 1581 811 2004 
Q 403 2428 403 3163 
Q 403 3881 828 4315 
Q 1253 4750 1959 4750 
Q 2769 4750 3195 4129 
Q 3622 3509 3622 2328 
Q 3622 1225 3098 567 
Q 2575 -91 1691 -91 
Q 1453 -91 1209 -44 
Q 966 3 703 97 
z
M 1959 2075 
Q 2384 2075 2632 2365 
Q 2881 2656 2881 3163 
Q 2881 3666 2632 3958 
Q 2384 4250 1959 4250 
Q 1534 4250 1286 3958 
Q 1038 3666 1038 3163 
Q 1038 2656 1286 2365 
Q 1534 2075 1959 2075 
z
" transform="scale(0.015625)"/>
       </defs>
       <use xlink:href="#DejaVuSans-31"/>
       <use xlink:href="#DejaVuSans-38" x="63.623047"/>
       <use xlink:href="#DejaVuSans-2d" x="127.246094"/>
       <use xlink:href="#DejaVuSans-32" x="163.330078"/>
       <use xlink:href="#DejaVuSans-39" x="226.953125"/>
      </g>
     </g>
    </g>
    <g id="xtick_2">
     <g id="line2d_2">
      <g>
       <use xlink:href="#mf641da2834" x="183.419464" y="164.278125" style="stroke: #000000; stroke-width: 0.8"/>
      </g>
     </g>
     <g id="text_2">
      <!-- 30-39 -->
      <g transform="translate(168.890558 178.876562) scale(0.1 -0.1)">
       <defs>
        <path id="DejaVuSans-33" d="M 2597 2516 
Q 3050 2419 3304 2112 
Q 3559 1806 3559 1356 
Q 3559 666 3084 287 
Q 2609 -91 1734 -91 
Q 1441 -91 1130 -33 
Q 819 25 488 141 
L 488 750 
Q 750 597 1062 519 
Q 1375 441 1716 441 
Q 2309 441 2620 675 
Q 2931 909 2931 1356 
Q 2931 1769 2642 2001 
Q 2353 2234 1838 2234 
L 1294 2234 
L 1294 2753 
L 1863 2753 
Q 2328 2753 2575 2939 
Q 2822 3125 2822 3475 
Q 2822 3834 2567 4026 
Q 2313 4219 1838 4219 
Q 1578 4219 1281 4162 
Q 984 4106 628 3988 
L 628 4550 
Q 988 4650 1302 4700 
Q 1616 4750 1894 4750 
Q 2613 4750 3031 4423 
Q 3450 4097 3450 3541 
Q 3450 3153 3228 2886 
Q 3006 2619 2597 2516 
z
" transform="scale(0.015625)"/>
        <path id="DejaVuSans-30" d="M 2034 4250 
Q 1547 4250 1301 3770 
Q 1056 3291 1056 2328 
Q 1056 1369 1301 889 
Q 1547 409 2034 409 
Q 2525 409 2770 889 
Q 3016 1369 3016 2328 
Q 3016 3291 2770 3770 
Q 2525 4250 2034 4250 
z
M 2034 4750 
Q 2819 4750 3233 4129 
Q 3647 3509 3647 2328 
Q 3647 1150 3233 529 
Q 2819 -91 2034 -91 
Q 1250 -91 836 529 
Q 422 1150 422 2328 
Q 422 3509 836 4129 
Q 1250 4750 2034 4750 
z
" transform="scale(0.015625)"/>
       </defs>
       <use xlink:href="#DejaVuSans-33"/>
       <use xlink:href="#DejaVuSans-30" x="63.623047"/>
       <use xlink:href="#DejaVuSans-2d" x="127.246094"/>
       <use xlink:href="#DejaVuSans-33" x="163.330078"/>
       <use xlink:href="#DejaVuSans-39" x="226.953125"/>
      </g>
     </g>
    </g>
    <g id="xtick_3">
     <g id="line2d_3">
      <g>
       <use xlink:href="#mf641da2834" x="258.805179" y="164.278125" style="stroke: #000000; stroke-width: 0.8"/>
      </g>
     </g>
     <g id="text_3">
      <!-- 40-49 -->
      <g transform="translate(244.276272 178.876562) scale(0.1 -0.1)">
       <defs>
        <path id="DejaVuSans-34" d="M 2419 4116 
L 825 1625 
L 2419 1625 
L 2419 4116 
z
M 2253 4666 
L 3047 4666 
L 3047 1625 
L 3713 1625 
L 3713 1100 
L 3047 1100 
L 3047 0 
L 2419 0 
L 2419 1100 
L 313 1100 
L 313 1709 
L 2253 4666 
z
" transform="scale(0.015625)"/>
       </defs>
       <use xlink:href="#DejaVuSans-34"/>
       <use xlink:href="#DejaVuSans-30" x="63.623047"/>
       <use xlink:href="#DejaVuSans-2d" x="127.246094"/>
       <use xlink:href="#DejaVuSans-34" x="163.330078"/>
       <use xlink:href="#DejaVuSans-39" x="226.953125"/>
      </g>
     </g>
    </g>
    <g id="xtick_4">
     <g id="line2d_4">
      <g>
       <use xlink:href="#mf641da2834" x="334.190893" y="164.278125" style="stroke: #000000; stroke-width: 0.8"/>
      </g>
     </g>
     <g id="text_4">
      <!-- 50-59 -->
      <g transform="translate(319.661987 178.876562) scale(0.1 -0.1)">
       <defs>
        <path id="DejaVuSans-35" d="M 691 4666 
L 3169 4666 
L 3169 4134 
L 1269 4134 
L 1269 2991 
Q 1406 3038 1543 3061 
Q 1681 3084 1819 3084 
Q 2600 3084 3056 2656 
Q 3513 2228 3513 1497 
Q 3513 744 3044 326 
Q 2575 -91 1722 -91 
Q 1428 -91 1123 -41 
Q 819 9 494 109 
L 494 744 
Q 775 591 1075 516 
Q 1375 441 1709 441 
Q 2250 441 2565 725 
Q 2881 1009 2881 1497 
Q 2881 1984 2565 2268 
Q 2250 2553 1709 2553 
Q 1456 2553 1204 2497 
Q 953 2441 691 2322 
L 691 4666 
z
" transform="scale(0.015625)"/>
       </defs>
       <use xlink:href="#DejaVuSans-35"/>
       <use xlink:href="#DejaVuSans-30" x="63.623047"/>
       <use xlink:href="#DejaVuSans-2d" x="127.246094"/>
       <use xlink:href="#DejaVuSans-35" x="163.330078"/>
       <use xlink:href="#DejaVuSans-39" x="226.953125"/>
      </g>
     </g>
    </g>
    <g id="xtick_5">
     <g id="line2d_5">
      <g>
       <use xlink:href="#mf641da2834" x="409.576607" y="164.278125" style="stroke: #000000; stroke-width: 0.8"/>
      </g>
     </g>
     <g id="text_5">
      <!-- 60-69 -->
      <g transform="translate(395.047701 178.876562) scale(0.1 -0.1)">
       <defs>
        <path id="DejaVuSans-36" d="M 2113 2584 
Q 1688 2584 1439 2293 
Q 1191 2003 1191 1497 
Q 1191 994 1439 701 
Q 1688 409 2113 409 
Q 2538 409 2786 701 
Q 3034 994 3034 1497 
Q 3034 2003 2786 2293 
Q 2538 2584 2113 2584 
z
M 3366 4563 
L 3366 3988 
Q 3128 4100 2886 4159 
Q 2644 4219 2406 4219 
Q 1781 4219 1451 3797 
Q 1122 3375 1075 2522 
Q 1259 2794 1537 2939 
Q 1816 3084 2150 3084 
Q 2853 3084 3261 2657 
Q 3669 2231 3669 1497 
Q 3669 778 3244 343 
Q 2819 -91 2113 -91 
Q 1303 -91 875 529 
Q 447 1150 447 2328 
Q 447 3434 972 4092 
Q 1497 4750 2381 4750 
Q 2619 4750 2861 4703 
Q 3103 4656 3366 4563 
z
" transform="scale(0.015625)"/>
       </defs>
       <use xlink:href="#DejaVuSans-36"/>
       <use xlink:href="#DejaVuSans-30" x="63.623047"/>
       <use xlink:href="#DejaVuSans-2d" x="127.246094"/>
       <use xlink:href="#DejaVuSans-36" x="163.330078"/>
       <use xlink:href="#DejaVuSans-39" x="226.953125"/>
      </g>
     </g>
    </g>
    <g id="xtick_6">
     <g id="line2d_6">
      <g>
       <use xlink:href="#mf641da2834" x="484.962321" y="164.278125" style="stroke: #000000; stroke-width: 0.8"/>
      </g>
     </g>
     <g id="text_6">
      <!-- 70-79 -->
      <g transform="translate(470.433415 178.876562) scale(0.1 -0.1)">
       <defs>
        <path id="DejaVuSans-37" d="M 525 4666 
L 3525 4666 
L 3525 4397 
L 1831 0 
L 1172 0 
L 2766 4134 
L 525 4134 
L 525 4666 
z
" transform="scale(0.015625)"/>
       </defs>
       <use xlink:href="#DejaVuSans-37"/>
       <use xlink:href="#DejaVuSans-30" x="63.623047"/>
       <use xlink:href="#DejaVuSans-2d" x="127.246094"/>
       <use xlink:href="#DejaVuSans-37" x="163.330078"/>
       <use xlink:href="#DejaVuSans-39" x="226.953125"/>
      </g>
     </g>
    </g>
    <g id="xtick_7">
     <g id="line2d_7">
      <g>
       <use xlink:href="#mf641da2834" x="560.348036" y="164.278125" style="stroke: #000000; stroke-width: 0.8"/>
      </g>
     </g>
     <g id="text_7">
      <!-- 80-89 -->
      <g transform="translate(545.819129 178.876562) scale(0.1 -0.1)">
       <use xlink:href="#DejaVuSans-38"/>
       <use xlink:href="#DejaVuSans-30" x="63.623047"/>
       <use xlink:href="#DejaVuSans-2d" x="127.246094"/>
       <use xlink:href="#DejaVuSans-38" x="163.330078"/>
       <use xlink:href="#DejaVuSans-39" x="226.953125"/>
      </g>
     </g>
    </g>
    <g id="xtick_8">
     <g id="line2d_8">
      <g>
       <use xlink:href="#mf641da2834" x="635.73375" y="164.278125" style="stroke: #000000; stroke-width: 0.8"/>
      </g>
     </g>
     <g id="text_8">
      <!-- 90-99 -->
      <g transform="translate(621.204844 178.876562) scale(0.1 -0.1)">
       <use xlink:href="#DejaVuSans-39"/>
       <use xlink:href="#DejaVuSans-30" x="63.623047"/>
       <use xlink:href="#DejaVuSans-2d" x="127.246094"/>
       <use xlink:href="#DejaVuSans-39" x="163.330078"/>
       <use xlink:href="#DejaVuSans-39" x="226.953125"/>
      </g>
     </g>
    </g>
    <g id="text_9">
     <!-- Age Group -->
     <g transform="translate(340.108125 194.074375) scale(0.12 -0.12)">
      <defs>
       <path id="DejaVuSans-41" d="M 2188 4044 
L 1331 1722 
L 3047 1722 
L 2188 4044 
z
M 1831 4666 
L 2547 4666 
L 4325 0 
L 3669 0 
L 3244 1197 
L 1141 1197 
L 716 0 
L 50 0 
L 1831 4666 
z
" transform="scale(0.015625)"/>
       <path id="DejaVuSans-67" d="M 2906 1791 
Q 2906 2416 2648 2759 
Q 2391 3103 1925 3103 
Q 1463 3103 1205 2759 
Q 947 2416 947 1791 
Q 947 1169 1205 825 
Q 1463 481 1925 481 
Q 2391 481 2648 825 
Q 2906 1169 2906 1791 
z
M 3481 434 
Q 3481 -459 3084 -895 
Q 2688 -1331 1869 -1331 
Q 1566 -1331 1297 -1286 
Q 1028 -1241 775 -1147 
L 775 -588 
Q 1028 -725 1275 -790 
Q 1522 -856 1778 -856 
Q 2344 -856 2625 -561 
Q 2906 -266 2906 331 
L 2906 616 
Q 2728 306 2450 153 
Q 2172 0 1784 0 
Q 1141 0 747 490 
Q 353 981 353 1791 
Q 353 2603 747 3093 
Q 1141 3584 1784 3584 
Q 2172 3584 2450 3431 
Q 2728 3278 2906 2969 
L 2906 3500 
L 3481 3500 
L 3481 434 
z
" transform="scale(0.015625)"/>
       <path id="DejaVuSans-65" d="M 3597 1894 
L 3597 1613 
L 953 1613 
Q 991 1019 1311 708 
Q 1631 397 2203 397 
Q 2534 397 2845 478 
Q 3156 559 3463 722 
L 3463 178 
Q 3153 47 2828 -22 
Q 2503 -91 2169 -91 
Q 1331 -91 842 396 
Q 353 884 353 1716 
Q 353 2575 817 3079 
Q 1281 3584 2069 3584 
Q 2775 3584 3186 3129 
Q 3597 2675 3597 1894 
z
M 3022 2063 
Q 3016 2534 2758 2815 
Q 2500 3097 2075 3097 
Q 1594 3097 1305 2825 
Q 1016 2553 972 2059 
L 3022 2063 
z
" transform="scale(0.015625)"/>
       <path id="DejaVuSans-20" transform="scale(0.015625)"/>
       <path id="DejaVuSans-47" d="M 3809 666 
L 3809 1919 
L 2778 1919 
L 2778 2438 
L 4434 2438 
L 4434 434 
Q 4069 175 3628 42 
Q 3188 -91 2688 -91 
Q 1594 -91 976 548 
Q 359 1188 359 2328 
Q 359 3472 976 4111 
Q 1594 4750 2688 4750 
Q 3144 4750 3555 4637 
Q 3966 4525 4313 4306 
L 4313 3634 
Q 3963 3931 3569 4081 
Q 3175 4231 2741 4231 
Q 1884 4231 1454 3753 
Q 1025 3275 1025 2328 
Q 1025 1384 1454 906 
Q 1884 428 2741 428 
Q 3075 428 3337 486 
Q 3600 544 3809 666 
z
" transform="scale(0.015625)"/>
       <path id="DejaVuSans-72" d="M 2631 2963 
Q 2534 3019 2420 3045 
Q 2306 3072 2169 3072 
Q 1681 3072 1420 2755 
Q 1159 2438 1159 1844 
L 1159 0 
L 581 0 
L 581 3500 
L 1159 3500 
L 1159 2956 
Q 1341 3275 1631 3429 
Q 1922 3584 2338 3584 
Q 2397 3584 2469 3576 
Q 2541 3569 2628 3553 
L 2631 2963 
z
" transform="scale(0.015625)"/>
       <path id="DejaVuSans-6f" d="M 1959 3097 
Q 1497 3097 1228 2736 
Q 959 2375 959 1747 
Q 959 1119 1226 758 
Q 1494 397 1959 397 
Q 2419 397 2687 759 
Q 2956 1122 2956 1747 
Q 2956 2369 2687 2733 
Q 2419 3097 1959 3097 
z
M 1959 3584 
Q 2709 3584 3137 3096 
Q 3566 2609 3566 1747 
Q 3566 888 3137 398 
Q 2709 -91 1959 -91 
Q 1206 -91 779 398 
Q 353 888 353 1747 
Q 353 2609 779 3096 
Q 1206 3584 1959 3584 
z
" transform="scale(0.015625)"/>
       <path id="DejaVuSans-75" d="M 544 1381 
L 544 3500 
L 1119 3500 
L 1119 1403 
Q 1119 906 1312 657 
Q 1506 409 1894 409 
Q 2359 409 2629 706 
Q 2900 1003 2900 1516 
L 2900 3500 
L 3475 3500 
L 3475 0 
L 2900 0 
L 2900 538 
Q 2691 219 2414 64 
Q 2138 -91 1772 -91 
Q 1169 -91 856 284 
Q 544 659 544 1381 
z
M 1991 3584 
L 1991 3584 
z
" transform="scale(0.015625)"/>
       <path id="DejaVuSans-70" d="M 1159 525 
L 1159 -1331 
L 581 -1331 
L 581 3500 
L 1159 3500 
L 1159 2969 
Q 1341 3281 1617 3432 
Q 1894 3584 2278 3584 
Q 2916 3584 3314 3078 
Q 3713 2572 3713 1747 
Q 3713 922 3314 415 
Q 2916 -91 2278 -91 
Q 1894 -91 1617 61 
Q 1341 213 1159 525 
z
M 3116 1747 
Q 3116 2381 2855 2742 
Q 2594 3103 2138 3103 
Q 1681 3103 1420 2742 
Q 1159 2381 1159 1747 
Q 1159 1113 1420 752 
Q 1681 391 2138 391 
Q 2594 391 2855 752 
Q 3116 1113 3116 1747 
z
" transform="scale(0.015625)"/>
      </defs>
      <use xlink:href="#DejaVuSans-41"/>
      <use xlink:href="#DejaVuSans-67" x="68.408203"/>
      <use xlink:href="#DejaVuSans-65" x="131.884766"/>
      <use xlink:href="#DejaVuSans-20" x="193.408203"/>
      <use xlink:href="#DejaVuSans-47" x="225.195312"/>
      <use xlink:href="#DejaVuSans-72" x="302.685547"/>
      <use xlink:href="#DejaVuSans-6f" x="341.548828"/>
      <use xlink:href="#DejaVuSans-75" x="402.730469"/>
      <use xlink:href="#DejaVuSans-70" x="466.109375"/>
     </g>
    </g>
   </g>
   <g id="matplotlib.axis_2">
    <g id="ytick_1">
     <g id="line2d_9">
      <defs>
       <path id="ma74061a692" d="M 0 0 
L -3.5 0 
" style="stroke: #000000; stroke-width: 0.8"/>
      </defs>
      <g>
       <use xlink:href="#ma74061a692" x="55.26375" y="164.278125" style="stroke: #000000; stroke-width: 0.8"/>
      </g>
     </g>
     <g id="text_10">
      <!-- 0 -->
      <g transform="translate(41.90125 168.077344) scale(0.1 -0.1)">
       <use xlink:href="#DejaVuSans-30"/>
      </g>
     </g>
    </g>
    <g id="ytick_2">
     <g id="line2d_10">
      <g>
       <use xlink:href="#ma74061a692" x="55.26375" y="128.811179" style="stroke: #000000; stroke-width: 0.8"/>
      </g>
     </g>
     <g id="text_11">
      <!-- 1000 -->
      <g transform="translate(22.81375 132.610397) scale(0.1 -0.1)">
       <use xlink:href="#DejaVuSans-31"/>
       <use xlink:href="#DejaVuSans-30" x="63.623047"/>
       <use xlink:href="#DejaVuSans-30" x="127.246094"/>
       <use xlink:href="#DejaVuSans-30" x="190.869141"/>
      </g>
     </g>
    </g>
    <g id="ytick_3">
     <g id="line2d_11">
      <g>
       <use xlink:href="#ma74061a692" x="55.26375" y="93.344232" style="stroke: #000000; stroke-width: 0.8"/>
      </g>
     </g>
     <g id="text_12">
      <!-- 2000 -->
      <g transform="translate(22.81375 97.143451) scale(0.1 -0.1)">
       <use xlink:href="#DejaVuSans-32"/>
       <use xlink:href="#DejaVuSans-30" x="63.623047"/>
       <use xlink:href="#DejaVuSans-30" x="127.246094"/>
       <use xlink:href="#DejaVuSans-30" x="190.869141"/>
      </g>
     </g>
    </g>
    <g id="ytick_4">
     <g id="line2d_12">
      <g>
       <use xlink:href="#ma74061a692" x="55.26375" y="57.877286" style="stroke: #000000; stroke-width: 0.8"/>
      </g>
     </g>
     <g id="text_13">
      <!-- 3000 -->
      <g transform="translate(22.81375 61.676504) scale(0.1 -0.1)">
       <use xlink:href="#DejaVuSans-33"/>
       <use xlink:href="#DejaVuSans-30" x="63.623047"/>
       <use xlink:href="#DejaVuSans-30" x="127.246094"/>
       <use xlink:href="#DejaVuSans-30" x="190.869141"/>
      </g>
     </g>
    </g>
    <g id="ytick_5">
     <g id="line2d_13">
      <g>
       <use xlink:href="#ma74061a692" x="55.26375" y="22.410339" style="stroke: #000000; stroke-width: 0.8"/>
      </g>
     </g>
     <g id="text_14">
      <!-- 4000 -->
      <g transform="translate(22.81375 26.209558) scale(0.1 -0.1)">
       <use xlink:href="#DejaVuSans-34"/>
       <use xlink:href="#DejaVuSans-30" x="63.623047"/>
       <use xlink:href="#DejaVuSans-30" x="127.246094"/>
       <use xlink:href="#DejaVuSans-30" x="190.869141"/>
      </g>
     </g>
    </g>
    <g id="text_15">
     <!-- Count -->
     <g transform="translate(16.318125 111.11625) rotate(-90) scale(0.12 -0.12)">
      <defs>
       <path id="DejaVuSans-43" d="M 4122 4306 
L 4122 3641 
Q 3803 3938 3442 4084 
Q 3081 4231 2675 4231 
Q 1875 4231 1450 3742 
Q 1025 3253 1025 2328 
Q 1025 1406 1450 917 
Q 1875 428 2675 428 
Q 3081 428 3442 575 
Q 3803 722 4122 1019 
L 4122 359 
Q 3791 134 3420 21 
Q 3050 -91 2638 -91 
Q 1578 -91 968 557 
Q 359 1206 359 2328 
Q 359 3453 968 4101 
Q 1578 4750 2638 4750 
Q 3056 4750 3426 4639 
Q 3797 4528 4122 4306 
z
" transform="scale(0.015625)"/>
       <path id="DejaVuSans-6e" d="M 3513 2113 
L 3513 0 
L 2938 0 
L 2938 2094 
Q 2938 2591 2744 2837 
Q 2550 3084 2163 3084 
Q 1697 3084 1428 2787 
Q 1159 2491 1159 1978 
L 1159 0 
L 581 0 
L 581 3500 
L 1159 3500 
L 1159 2956 
Q 1366 3272 1645 3428 
Q 1925 3584 2291 3584 
Q 2894 3584 3203 3211 
Q 3513 2838 3513 2113 
z
" transform="scale(0.015625)"/>
       <path id="DejaVuSans-74" d="M 1172 4494 
L 1172 3500 
L 2356 3500 
L 2356 3053 
L 1172 3053 
L 1172 1153 
Q 1172 725 1289 603 
Q 1406 481 1766 481 
L 2356 481 
L 2356 0 
L 1766 0 
Q 1100 0 847 248 
Q 594 497 594 1153 
L 594 3053 
L 172 3053 
L 172 3500 
L 594 3500 
L 594 4494 
L 1172 4494 
z
" transform="scale(0.015625)"/>
      </defs>
      <use xlink:href="#DejaVuSans-43"/>
      <use xlink:href="#DejaVuSans-6f" x="69.824219"/>
      <use xlink:href="#DejaVuSans-75" x="131.005859"/>
      <use xlink:href="#DejaVuSans-6e" x="194.384766"/>
      <use xlink:href="#DejaVuSans-74" x="257.763672"/>
     </g>
    </g>
   </g>
   <g id="patch_51">
    <path d="M 55.26375 164.278125 
L 55.26375 22.318125 
" style="fill: none; stroke: #000000; stroke-width: 0.8; stroke-linejoin: miter; stroke-linecap: square"/>
   </g>
   <g id="patch_52">
    <path d="M 688.50375 164.278125 
L 688.50375 22.318125 
" style="fill: none; stroke: #000000; stroke-width: 0.8; stroke-linejoin: miter; stroke-linecap: square"/>
   </g>
   <g id="patch_53">
    <path d="M 55.26375 164.278125 
L 688.50375 164.278125 
" style="fill: none; stroke: #000000; stroke-width: 0.8; stroke-linejoin: miter; stroke-linecap: square"/>
   </g>
   <g id="patch_54">
    <path d="M 55.26375 22.318125 
L 688.50375 22.318125 
" style="fill: none; stroke: #000000; stroke-width: 0.8; stroke-linejoin: miter; stroke-linecap: square"/>
   </g>
   <g id="text_16">
    <!-- Prevalence of ckd_stage by Age Group -->
    <g transform="translate(256.182188 16.318125) scale(0.12 -0.12)">
     <defs>
      <path id="DejaVuSans-50" d="M 1259 4147 
L 1259 2394 
L 2053 2394 
Q 2494 2394 2734 2622 
Q 2975 2850 2975 3272 
Q 2975 3691 2734 3919 
Q 2494 4147 2053 4147 
L 1259 4147 
z
M 628 4666 
L 2053 4666 
Q 2838 4666 3239 4311 
Q 3641 3956 3641 3272 
Q 3641 2581 3239 2228 
Q 2838 1875 2053 1875 
L 1259 1875 
L 1259 0 
L 628 0 
L 628 4666 
z
" transform="scale(0.015625)"/>
      <path id="DejaVuSans-76" d="M 191 3500 
L 800 3500 
L 1894 563 
L 2988 3500 
L 3597 3500 
L 2284 0 
L 1503 0 
L 191 3500 
z
" transform="scale(0.015625)"/>
      <path id="DejaVuSans-61" d="M 2194 1759 
Q 1497 1759 1228 1600 
Q 959 1441 959 1056 
Q 959 750 1161 570 
Q 1363 391 1709 391 
Q 2188 391 2477 730 
Q 2766 1069 2766 1631 
L 2766 1759 
L 2194 1759 
z
M 3341 1997 
L 3341 0 
L 2766 0 
L 2766 531 
Q 2569 213 2275 61 
Q 1981 -91 1556 -91 
Q 1019 -91 701 211 
Q 384 513 384 1019 
Q 384 1609 779 1909 
Q 1175 2209 1959 2209 
L 2766 2209 
L 2766 2266 
Q 2766 2663 2505 2880 
Q 2244 3097 1772 3097 
Q 1472 3097 1187 3025 
Q 903 2953 641 2809 
L 641 3341 
Q 956 3463 1253 3523 
Q 1550 3584 1831 3584 
Q 2591 3584 2966 3190 
Q 3341 2797 3341 1997 
z
" transform="scale(0.015625)"/>
      <path id="DejaVuSans-6c" d="M 603 4863 
L 1178 4863 
L 1178 0 
L 603 0 
L 603 4863 
z
" transform="scale(0.015625)"/>
      <path id="DejaVuSans-63" d="M 3122 3366 
L 3122 2828 
Q 2878 2963 2633 3030 
Q 2388 3097 2138 3097 
Q 1578 3097 1268 2742 
Q 959 2388 959 1747 
Q 959 1106 1268 751 
Q 1578 397 2138 397 
Q 2388 397 2633 464 
Q 2878 531 3122 666 
L 3122 134 
Q 2881 22 2623 -34 
Q 2366 -91 2075 -91 
Q 1284 -91 818 406 
Q 353 903 353 1747 
Q 353 2603 823 3093 
Q 1294 3584 2113 3584 
Q 2378 3584 2631 3529 
Q 2884 3475 3122 3366 
z
" transform="scale(0.015625)"/>
      <path id="DejaVuSans-66" d="M 2375 4863 
L 2375 4384 
L 1825 4384 
Q 1516 4384 1395 4259 
Q 1275 4134 1275 3809 
L 1275 3500 
L 2222 3500 
L 2222 3053 
L 1275 3053 
L 1275 0 
L 697 0 
L 697 3053 
L 147 3053 
L 147 3500 
L 697 3500 
L 697 3744 
Q 697 4328 969 4595 
Q 1241 4863 1831 4863 
L 2375 4863 
z
" transform="scale(0.015625)"/>
      <path id="DejaVuSans-6b" d="M 581 4863 
L 1159 4863 
L 1159 1991 
L 2875 3500 
L 3609 3500 
L 1753 1863 
L 3688 0 
L 2938 0 
L 1159 1709 
L 1159 0 
L 581 0 
L 581 4863 
z
" transform="scale(0.015625)"/>
      <path id="DejaVuSans-64" d="M 2906 2969 
L 2906 4863 
L 3481 4863 
L 3481 0 
L 2906 0 
L 2906 525 
Q 2725 213 2448 61 
Q 2172 -91 1784 -91 
Q 1150 -91 751 415 
Q 353 922 353 1747 
Q 353 2572 751 3078 
Q 1150 3584 1784 3584 
Q 2172 3584 2448 3432 
Q 2725 3281 2906 2969 
z
M 947 1747 
Q 947 1113 1208 752 
Q 1469 391 1925 391 
Q 2381 391 2643 752 
Q 2906 1113 2906 1747 
Q 2906 2381 2643 2742 
Q 2381 3103 1925 3103 
Q 1469 3103 1208 2742 
Q 947 2381 947 1747 
z
" transform="scale(0.015625)"/>
      <path id="DejaVuSans-5f" d="M 3263 -1063 
L 3263 -1509 
L -63 -1509 
L -63 -1063 
L 3263 -1063 
z
" transform="scale(0.015625)"/>
      <path id="DejaVuSans-73" d="M 2834 3397 
L 2834 2853 
Q 2591 2978 2328 3040 
Q 2066 3103 1784 3103 
Q 1356 3103 1142 2972 
Q 928 2841 928 2578 
Q 928 2378 1081 2264 
Q 1234 2150 1697 2047 
L 1894 2003 
Q 2506 1872 2764 1633 
Q 3022 1394 3022 966 
Q 3022 478 2636 193 
Q 2250 -91 1575 -91 
Q 1294 -91 989 -36 
Q 684 19 347 128 
L 347 722 
Q 666 556 975 473 
Q 1284 391 1588 391 
Q 1994 391 2212 530 
Q 2431 669 2431 922 
Q 2431 1156 2273 1281 
Q 2116 1406 1581 1522 
L 1381 1569 
Q 847 1681 609 1914 
Q 372 2147 372 2553 
Q 372 3047 722 3315 
Q 1072 3584 1716 3584 
Q 2034 3584 2315 3537 
Q 2597 3491 2834 3397 
z
" transform="scale(0.015625)"/>
      <path id="DejaVuSans-62" d="M 3116 1747 
Q 3116 2381 2855 2742 
Q 2594 3103 2138 3103 
Q 1681 3103 1420 2742 
Q 1159 2381 1159 1747 
Q 1159 1113 1420 752 
Q 1681 391 2138 391 
Q 2594 391 2855 752 
Q 3116 1113 3116 1747 
z
M 1159 2969 
Q 1341 3281 1617 3432 
Q 1894 3584 2278 3584 
Q 2916 3584 3314 3078 
Q 3713 2572 3713 1747 
Q 3713 922 3314 415 
Q 2916 -91 2278 -91 
Q 1894 -91 1617 61 
Q 1341 213 1159 525 
L 1159 0 
L 581 0 
L 581 4863 
L 1159 4863 
L 1159 2969 
z
" transform="scale(0.015625)"/>
      <path id="DejaVuSans-79" d="M 2059 -325 
Q 1816 -950 1584 -1140 
Q 1353 -1331 966 -1331 
L 506 -1331 
L 506 -850 
L 844 -850 
Q 1081 -850 1212 -737 
Q 1344 -625 1503 -206 
L 1606 56 
L 191 3500 
L 800 3500 
L 1894 763 
L 2988 3500 
L 3597 3500 
L 2059 -325 
z
" transform="scale(0.015625)"/>
     </defs>
     <use xlink:href="#DejaVuSans-50"/>
     <use xlink:href="#DejaVuSans-72" x="58.552734"/>
     <use xlink:href="#DejaVuSans-65" x="97.416016"/>
     <use xlink:href="#DejaVuSans-76" x="158.939453"/>
     <use xlink:href="#DejaVuSans-61" x="218.119141"/>
     <use xlink:href="#DejaVuSans-6c" x="279.398438"/>
     <use xlink:href="#DejaVuSans-65" x="307.181641"/>
     <use xlink:href="#DejaVuSans-6e" x="368.705078"/>
     <use xlink:href="#DejaVuSans-63" x="432.083984"/>
     <use xlink:href="#DejaVuSans-65" x="487.064453"/>
     <use xlink:href="#DejaVuSans-20" x="548.587891"/>
     <use xlink:href="#DejaVuSans-6f" x="580.375"/>
     <use xlink:href="#DejaVuSans-66" x="641.556641"/>
     <use xlink:href="#DejaVuSans-20" x="676.761719"/>
     <use xlink:href="#DejaVuSans-63" x="708.548828"/>
     <use xlink:href="#DejaVuSans-6b" x="763.529297"/>
     <use xlink:href="#DejaVuSans-64" x="821.439453"/>
     <use xlink:href="#DejaVuSans-5f" x="884.916016"/>
     <use xlink:href="#DejaVuSans-73" x="934.916016"/>
     <use xlink:href="#DejaVuSans-74" x="987.015625"/>
     <use xlink:href="#DejaVuSans-61" x="1026.224609"/>
     <use xlink:href="#DejaVuSans-67" x="1087.503906"/>
     <use xlink:href="#DejaVuSans-65" x="1150.980469"/>
     <use xlink:href="#DejaVuSans-20" x="1212.503906"/>
     <use xlink:href="#DejaVuSans-62" x="1244.291016"/>
     <use xlink:href="#DejaVuSans-79" x="1307.767578"/>
     <use xlink:href="#DejaVuSans-20" x="1366.947266"/>
     <use xlink:href="#DejaVuSans-41" x="1398.734375"/>
     <use xlink:href="#DejaVuSans-67" x="1467.142578"/>
     <use xlink:href="#DejaVuSans-65" x="1530.619141"/>
     <use xlink:href="#DejaVuSans-20" x="1592.142578"/>
     <use xlink:href="#DejaVuSans-47" x="1623.929688"/>
     <use xlink:href="#DejaVuSans-72" x="1701.419922"/>
     <use xlink:href="#DejaVuSans-6f" x="1740.283203"/>
     <use xlink:href="#DejaVuSans-75" x="1801.464844"/>
     <use xlink:href="#DejaVuSans-70" x="1864.84375"/>
    </g>
   </g>
   <g id="legend_1">
    <g id="patch_55">
     <path d="M 558.65625 137.600625 
L 680.10375 137.600625 
Q 682.50375 137.600625 682.50375 135.200625 
L 682.50375 30.718125 
Q 682.50375 28.318125 680.10375 28.318125 
L 558.65625 28.318125 
Q 556.25625 28.318125 556.25625 30.718125 
L 556.25625 135.200625 
Q 556.25625 137.600625 558.65625 137.600625 
z
" style="fill: #ffffff; opacity: 0.8; stroke: #cccccc; stroke-linejoin: miter"/>
    </g>
    <g id="patch_56">
     <path d="M 561.05625 42.23625 
L 585.05625 42.23625 
L 585.05625 33.83625 
L 561.05625 33.83625 
z
" style="fill: #00bfc4"/>
    </g>
    <g id="text_17">
     <!-- CKD Stage 1 -->
     <g transform="translate(594.65625 42.23625) scale(0.12 -0.12)">
      <defs>
       <path id="DejaVuSans-4b" d="M 628 4666 
L 1259 4666 
L 1259 2694 
L 3353 4666 
L 4166 4666 
L 1850 2491 
L 4331 0 
L 3500 0 
L 1259 2247 
L 1259 0 
L 628 0 
L 628 4666 
z
" transform="scale(0.015625)"/>
       <path id="DejaVuSans-44" d="M 1259 4147 
L 1259 519 
L 2022 519 
Q 2988 519 3436 956 
Q 3884 1394 3884 2338 
Q 3884 3275 3436 3711 
Q 2988 4147 2022 4147 
L 1259 4147 
z
M 628 4666 
L 1925 4666 
Q 3281 4666 3915 4102 
Q 4550 3538 4550 2338 
Q 4550 1131 3912 565 
Q 3275 0 1925 0 
L 628 0 
L 628 4666 
z
" transform="scale(0.015625)"/>
       <path id="DejaVuSans-53" d="M 3425 4513 
L 3425 3897 
Q 3066 4069 2747 4153 
Q 2428 4238 2131 4238 
Q 1616 4238 1336 4038 
Q 1056 3838 1056 3469 
Q 1056 3159 1242 3001 
Q 1428 2844 1947 2747 
L 2328 2669 
Q 3034 2534 3370 2195 
Q 3706 1856 3706 1288 
Q 3706 609 3251 259 
Q 2797 -91 1919 -91 
Q 1588 -91 1214 -16 
Q 841 59 441 206 
L 441 856 
Q 825 641 1194 531 
Q 1563 422 1919 422 
Q 2459 422 2753 634 
Q 3047 847 3047 1241 
Q 3047 1584 2836 1778 
Q 2625 1972 2144 2069 
L 1759 2144 
Q 1053 2284 737 2584 
Q 422 2884 422 3419 
Q 422 4038 858 4394 
Q 1294 4750 2059 4750 
Q 2388 4750 2728 4690 
Q 3069 4631 3425 4513 
z
" transform="scale(0.015625)"/>
      </defs>
      <use xlink:href="#DejaVuSans-43"/>
      <use xlink:href="#DejaVuSans-4b" x="69.824219"/>
      <use xlink:href="#DejaVuSans-44" x="135.400391"/>
      <use xlink:href="#DejaVuSans-20" x="212.402344"/>
      <use xlink:href="#DejaVuSans-53" x="244.189453"/>
      <use xlink:href="#DejaVuSans-74" x="307.666016"/>
      <use xlink:href="#DejaVuSans-61" x="346.875"/>
      <use xlink:href="#DejaVuSans-67" x="408.154297"/>
      <use xlink:href="#DejaVuSans-65" x="471.630859"/>
      <use xlink:href="#DejaVuSans-20" x="533.154297"/>
      <use xlink:href="#DejaVuSans-31" x="564.941406"/>
     </g>
    </g>
    <g id="patch_57">
     <path d="M 561.05625 59.85 
L 585.05625 59.85 
L 585.05625 51.45 
L 561.05625 51.45 
z
" style="fill: #f8766d"/>
    </g>
    <g id="text_18">
     <!-- CKD Stage 2 -->
     <g transform="translate(594.65625 59.85) scale(0.12 -0.12)">
      <use xlink:href="#DejaVuSans-43"/>
      <use xlink:href="#DejaVuSans-4b" x="69.824219"/>
      <use xlink:href="#DejaVuSans-44" x="135.400391"/>
      <use xlink:href="#DejaVuSans-20" x="212.402344"/>
      <use xlink:href="#DejaVuSans-53" x="244.189453"/>
      <use xlink:href="#DejaVuSans-74" x="307.666016"/>
      <use xlink:href="#DejaVuSans-61" x="346.875"/>
      <use xlink:href="#DejaVuSans-67" x="408.154297"/>
      <use xlink:href="#DejaVuSans-65" x="471.630859"/>
      <use xlink:href="#DejaVuSans-20" x="533.154297"/>
      <use xlink:href="#DejaVuSans-32" x="564.941406"/>
     </g>
    </g>
    <g id="patch_58">
     <path d="M 561.05625 77.46375 
L 585.05625 77.46375 
L 585.05625 69.06375 
L 561.05625 69.06375 
z
" style="fill: #ffcccc"/>
    </g>
    <g id="text_19">
     <!-- CKD Stage 3a -->
     <g transform="translate(594.65625 77.46375) scale(0.12 -0.12)">
      <use xlink:href="#DejaVuSans-43"/>
      <use xlink:href="#DejaVuSans-4b" x="69.824219"/>
      <use xlink:href="#DejaVuSans-44" x="135.400391"/>
      <use xlink:href="#DejaVuSans-20" x="212.402344"/>
      <use xlink:href="#DejaVuSans-53" x="244.189453"/>
      <use xlink:href="#DejaVuSans-74" x="307.666016"/>
      <use xlink:href="#DejaVuSans-61" x="346.875"/>
      <use xlink:href="#DejaVuSans-67" x="408.154297"/>
      <use xlink:href="#DejaVuSans-65" x="471.630859"/>
      <use xlink:href="#DejaVuSans-20" x="533.154297"/>
      <use xlink:href="#DejaVuSans-33" x="564.941406"/>
      <use xlink:href="#DejaVuSans-61" x="628.564453"/>
     </g>
    </g>
    <g id="patch_59">
     <path d="M 561.05625 95.0775 
L 585.05625 95.0775 
L 585.05625 86.6775 
L 561.05625 86.6775 
z
" style="fill: #ff6666"/>
    </g>
    <g id="text_20">
     <!-- CKD Stage 3b -->
     <g transform="translate(594.65625 95.0775) scale(0.12 -0.12)">
      <use xlink:href="#DejaVuSans-43"/>
      <use xlink:href="#DejaVuSans-4b" x="69.824219"/>
      <use xlink:href="#DejaVuSans-44" x="135.400391"/>
      <use xlink:href="#DejaVuSans-20" x="212.402344"/>
      <use xlink:href="#DejaVuSans-53" x="244.189453"/>
      <use xlink:href="#DejaVuSans-74" x="307.666016"/>
      <use xlink:href="#DejaVuSans-61" x="346.875"/>
      <use xlink:href="#DejaVuSans-67" x="408.154297"/>
      <use xlink:href="#DejaVuSans-65" x="471.630859"/>
      <use xlink:href="#DejaVuSans-20" x="533.154297"/>
      <use xlink:href="#DejaVuSans-33" x="564.941406"/>
      <use xlink:href="#DejaVuSans-62" x="628.564453"/>
     </g>
    </g>
    <g id="patch_60">
     <path d="M 561.05625 112.69125 
L 585.05625 112.69125 
L 585.05625 104.29125 
L 561.05625 104.29125 
z
" style="fill: #cc0000"/>
    </g>
    <g id="text_21">
     <!-- CKD Stage 4 -->
     <g transform="translate(594.65625 112.69125) scale(0.12 -0.12)">
      <use xlink:href="#DejaVuSans-43"/>
      <use xlink:href="#DejaVuSans-4b" x="69.824219"/>
      <use xlink:href="#DejaVuSans-44" x="135.400391"/>
      <use xlink:href="#DejaVuSans-20" x="212.402344"/>
      <use xlink:href="#DejaVuSans-53" x="244.189453"/>
      <use xlink:href="#DejaVuSans-74" x="307.666016"/>
      <use xlink:href="#DejaVuSans-61" x="346.875"/>
      <use xlink:href="#DejaVuSans-67" x="408.154297"/>
      <use xlink:href="#DejaVuSans-65" x="471.630859"/>
      <use xlink:href="#DejaVuSans-20" x="533.154297"/>
      <use xlink:href="#DejaVuSans-34" x="564.941406"/>
     </g>
    </g>
    <g id="patch_61">
     <path d="M 561.05625 130.305 
L 585.05625 130.305 
L 585.05625 121.905 
L 561.05625 121.905 
z
" style="fill: #660000"/>
    </g>
    <g id="text_22">
     <!-- CKD Stage 5 -->
     <g transform="translate(594.65625 130.305) scale(0.12 -0.12)">
      <use xlink:href="#DejaVuSans-43"/>
      <use xlink:href="#DejaVuSans-4b" x="69.824219"/>
      <use xlink:href="#DejaVuSans-44" x="135.400391"/>
      <use xlink:href="#DejaVuSans-20" x="212.402344"/>
      <use xlink:href="#DejaVuSans-53" x="244.189453"/>
      <use xlink:href="#DejaVuSans-74" x="307.666016"/>
      <use xlink:href="#DejaVuSans-61" x="346.875"/>
      <use xlink:href="#DejaVuSans-67" x="408.154297"/>
      <use xlink:href="#DejaVuSans-65" x="471.630859"/>
      <use xlink:href="#DejaVuSans-20" x="533.154297"/>
      <use xlink:href="#DejaVuSans-35" x="564.941406"/>
     </g>
    </g>
   </g>
  </g>
  <g id="axes_2">
   <g id="patch_62">
    <path d="M 55.26375 377.278125 
L 688.50375 377.278125 
L 688.50375 235.318125 
L 55.26375 235.318125 
z
" style="fill: #ffffff"/>
   </g>
   <g id="patch_63">
    <path d="M 74.110179 377.278125 
L 141.957321 377.278125 
L 141.957321 294.553335 
L 74.110179 294.553335 
z
" clip-path="url(#p44728eb510)" style="fill: #00bfc4"/>
   </g>
   <g id="patch_64">
    <path d="M 149.495893 377.278125 
L 217.343036 377.278125 
L 217.343036 337.194528 
L 149.495893 337.194528 
z
" clip-path="url(#p44728eb510)" style="fill: #00bfc4"/>
   </g>
   <g id="patch_65">
    <path d="M 224.881607 377.278125 
L 292.72875 377.278125 
L 292.72875 349.478903 
L 224.881607 349.478903 
z
" clip-path="url(#p44728eb510)" style="fill: #00bfc4"/>
   </g>
   <g id="patch_66">
    <path d="M 300.267321 377.278125 
L 368.114464 377.278125 
L 368.114464 354.262831 
L 300.267321 354.262831 
z
" clip-path="url(#p44728eb510)" style="fill: #00bfc4"/>
   </g>
   <g id="patch_67">
    <path d="M 375.653036 377.278125 
L 443.500179 377.278125 
L 443.500179 362.346541 
L 375.653036 362.346541 
z
" clip-path="url(#p44728eb510)" style="fill: #00bfc4"/>
   </g>
   <g id="patch_68">
    <path d="M 451.03875 377.278125 
L 518.885893 377.278125 
L 518.885893 372.256547 
L 451.03875 372.256547 
z
" clip-path="url(#p44728eb510)" style="fill: #00bfc4"/>
   </g>
   <g id="patch_69">
    <path d="M 526.424464 377.278125 
L 594.271607 377.278125 
L 594.271607 372.391378 
L 526.424464 372.391378 
z
" clip-path="url(#p44728eb510)" style="fill: #00bfc4"/>
   </g>
   <g id="patch_70">
    <path d="M 601.810179 377.278125 
L 669.657321 377.278125 
L 669.657321 370.162336 
L 601.810179 370.162336 
z
" clip-path="url(#p44728eb510)" style="fill: #00bfc4"/>
   </g>
   <g id="patch_71">
    <path d="M 74.110179 294.553335 
L 141.957321 294.553335 
L 141.957321 261.392411 
L 74.110179 261.392411 
z
" clip-path="url(#p44728eb510)" style="fill: #f8766d"/>
   </g>
   <g id="patch_72">
    <path d="M 149.495893 337.194528 
L 217.343036 337.194528 
L 217.343036 279.451151 
L 149.495893 279.451151 
z
" clip-path="url(#p44728eb510)" style="fill: #f8766d"/>
   </g>
   <g id="patch_73">
    <path d="M 224.881607 349.478903 
L 292.72875 349.478903 
L 292.72875 288.332293 
L 224.881607 288.332293 
z
" clip-path="url(#p44728eb510)" style="fill: #f8766d"/>
   </g>
   <g id="patch_74">
    <path d="M 300.267321 354.262831 
L 368.114464 354.262831 
L 368.114464 293.931861 
L 300.267321 293.931861 
z
" clip-path="url(#p44728eb510)" style="fill: #f8766d"/>
   </g>
   <g id="patch_75">
    <path d="M 375.653036 362.346541 
L 443.500179 362.346541 
L 443.500179 308.117579 
L 375.653036 308.117579 
z
" clip-path="url(#p44728eb510)" style="fill: #f8766d"/>
   </g>
   <g id="patch_76">
    <path d="M 451.03875 372.256547 
L 518.885893 372.256547 
L 518.885893 314.101896 
L 451.03875 314.101896 
z
" clip-path="url(#p44728eb510)" style="fill: #f8766d"/>
   </g>
   <g id="patch_77">
    <path d="M 526.424464 372.391378 
L 594.271607 372.391378 
L 594.271607 314.157643 
L 526.424464 314.157643 
z
" clip-path="url(#p44728eb510)" style="fill: #f8766d"/>
   </g>
   <g id="patch_78">
    <path d="M 601.810179 370.162336 
L 669.657321 370.162336 
L 669.657321 309.678125 
L 601.810179 309.678125 
z
" clip-path="url(#p44728eb510)" style="fill: #f8766d"/>
   </g>
   <g id="patch_79">
    <path d="M 74.110179 261.392411 
L 141.957321 261.392411 
L 141.957321 256.137789 
L 74.110179 256.137789 
z
" clip-path="url(#p44728eb510)" style="fill: #ffcccc"/>
   </g>
   <g id="patch_80">
    <path d="M 149.495893 279.451151 
L 217.343036 279.451151 
L 217.343036 268.691005 
L 149.495893 268.691005 
z
" clip-path="url(#p44728eb510)" style="fill: #ffcccc"/>
   </g>
   <g id="patch_81">
    <path d="M 224.881607 288.332293 
L 292.72875 288.332293 
L 292.72875 272.155015 
L 224.881607 272.155015 
z
" clip-path="url(#p44728eb510)" style="fill: #ffcccc"/>
   </g>
   <g id="patch_82">
    <path d="M 300.267321 293.931861 
L 368.114464 293.931861 
L 368.114464 275.828608 
L 300.267321 275.828608 
z
" clip-path="url(#p44728eb510)" style="fill: #ffcccc"/>
   </g>
   <g id="patch_83">
    <path d="M 375.653036 308.117579 
L 443.500179 308.117579 
L 443.500179 278.218943 
L 375.653036 278.218943 
z
" clip-path="url(#p44728eb510)" style="fill: #ffcccc"/>
   </g>
   <g id="patch_84">
    <path d="M 451.03875 314.101896 
L 518.885893 314.101896 
L 518.885893 278.137835 
L 451.03875 278.137835 
z
" clip-path="url(#p44728eb510)" style="fill: #ffcccc"/>
   </g>
   <g id="patch_85">
    <path d="M 526.424464 314.157643 
L 594.271607 314.157643 
L 594.271607 280.561258 
L 526.424464 280.561258 
z
" clip-path="url(#p44728eb510)" style="fill: #ffcccc"/>
   </g>
   <g id="patch_86">
    <path d="M 601.810179 309.678125 
L 669.657321 309.678125 
L 669.657321 281.214967 
L 601.810179 281.214967 
z
" clip-path="url(#p44728eb510)" style="fill: #ffcccc"/>
   </g>
   <g id="patch_87">
    <path d="M 74.110179 256.137789 
L 141.957321 256.137789 
L 141.957321 251.309217 
L 74.110179 251.309217 
z
" clip-path="url(#p44728eb510)" style="fill: #ff6666"/>
   </g>
   <g id="patch_88">
    <path d="M 149.495893 268.691005 
L 217.343036 268.691005 
L 217.343036 260.559291 
L 149.495893 260.559291 
z
" clip-path="url(#p44728eb510)" style="fill: #ff6666"/>
   </g>
   <g id="patch_89">
    <path d="M 224.881607 272.155015 
L 292.72875 272.155015 
L 292.72875 262.109918 
L 224.881607 262.109918 
z
" clip-path="url(#p44728eb510)" style="fill: #ff6666"/>
   </g>
   <g id="patch_90">
    <path d="M 300.267321 275.828608 
L 368.114464 275.828608 
L 368.114464 263.350437 
L 300.267321 263.350437 
z
" clip-path="url(#p44728eb510)" style="fill: #ff6666"/>
   </g>
   <g id="patch_91">
    <path d="M 375.653036 278.218943 
L 443.500179 278.218943 
L 443.500179 260.698272 
L 375.653036 260.698272 
z
" clip-path="url(#p44728eb510)" style="fill: #ff6666"/>
   </g>
   <g id="patch_92">
    <path d="M 451.03875 278.137835 
L 518.885893 278.137835 
L 518.885893 256.999384 
L 451.03875 256.999384 
z
" clip-path="url(#p44728eb510)" style="fill: #ff6666"/>
   </g>
   <g id="patch_93">
    <path d="M 526.424464 280.561258 
L 594.271607 280.561258 
L 594.271607 255.516679 
L 526.424464 255.516679 
z
" clip-path="url(#p44728eb510)" style="fill: #ff6666"/>
   </g>
   <g id="patch_94">
    <path d="M 601.810179 281.214967 
L 669.657321 281.214967 
L 669.657321 256.309704 
L 601.810179 256.309704 
z
" clip-path="url(#p44728eb510)" style="fill: #ff6666"/>
   </g>
   <g id="patch_95">
    <path d="M 74.110179 251.309217 
L 141.957321 251.309217 
L 141.957321 246.622663 
L 74.110179 246.622663 
z
" clip-path="url(#p44728eb510)" style="fill: #cc0000"/>
   </g>
   <g id="patch_96">
    <path d="M 149.495893 260.559291 
L 217.343036 260.559291 
L 217.343036 252.34544 
L 149.495893 252.34544 
z
" clip-path="url(#p44728eb510)" style="fill: #cc0000"/>
   </g>
   <g id="patch_97">
    <path d="M 224.881607 262.109918 
L 292.72875 262.109918 
L 292.72875 251.71441 
L 224.881607 251.71441 
z
" clip-path="url(#p44728eb510)" style="fill: #cc0000"/>
   </g>
   <g id="patch_98">
    <path d="M 300.267321 263.350437 
L 368.114464 263.350437 
L 368.114464 251.902209 
L 300.267321 251.902209 
z
" clip-path="url(#p44728eb510)" style="fill: #cc0000"/>
   </g>
   <g id="patch_99">
    <path d="M 375.653036 260.698272 
L 443.500179 260.698272 
L 443.500179 249.277915 
L 375.653036 249.277915 
z
" clip-path="url(#p44728eb510)" style="fill: #cc0000"/>
   </g>
   <g id="patch_100">
    <path d="M 451.03875 256.999384 
L 518.885893 256.999384 
L 518.885893 246.525808 
L 451.03875 246.525808 
z
" clip-path="url(#p44728eb510)" style="fill: #cc0000"/>
   </g>
   <g id="patch_101">
    <path d="M 526.424464 255.516679 
L 594.271607 255.516679 
L 594.271607 245.743185 
L 526.424464 245.743185 
z
" clip-path="url(#p44728eb510)" style="fill: #cc0000"/>
   </g>
   <g id="patch_102">
    <path d="M 601.810179 256.309704 
L 669.657321 256.309704 
L 669.657321 242.078125 
L 601.810179 242.078125 
z
" clip-path="url(#p44728eb510)" style="fill: #cc0000"/>
   </g>
   <g id="patch_103">
    <path d="M 74.110179 246.622663 
L 141.957321 246.622663 
L 141.957321 242.078125 
L 74.110179 242.078125 
z
" clip-path="url(#p44728eb510)" style="fill: #660000"/>
   </g>
   <g id="patch_104">
    <path d="M 149.495893 252.34544 
L 217.343036 252.34544 
L 217.343036 242.078125 
L 149.495893 242.078125 
z
" clip-path="url(#p44728eb510)" style="fill: #660000"/>
   </g>
   <g id="patch_105">
    <path d="M 224.881607 251.71441 
L 292.72875 251.71441 
L 292.72875 242.078125 
L 224.881607 242.078125 
z
" clip-path="url(#p44728eb510)" style="fill: #660000"/>
   </g>
   <g id="patch_106">
    <path d="M 300.267321 251.902209 
L 368.114464 251.902209 
L 368.114464 242.078125 
L 300.267321 242.078125 
z
" clip-path="url(#p44728eb510)" style="fill: #660000"/>
   </g>
   <g id="patch_107">
    <path d="M 375.653036 249.277915 
L 443.500179 249.277915 
L 443.500179 242.078125 
L 375.653036 242.078125 
z
" clip-path="url(#p44728eb510)" style="fill: #660000"/>
   </g>
   <g id="patch_108">
    <path d="M 451.03875 246.525808 
L 518.885893 246.525808 
L 518.885893 242.078125 
L 451.03875 242.078125 
z
" clip-path="url(#p44728eb510)" style="fill: #660000"/>
   </g>
   <g id="patch_109">
    <path d="M 526.424464 245.743185 
L 594.271607 245.743185 
L 594.271607 242.078125 
L 526.424464 242.078125 
z
" clip-path="url(#p44728eb510)" style="fill: #660000"/>
   </g>
   <g id="patch_110">
    <path d="M 601.810179 377.278125 
L 669.657321 377.278125 
L 669.657321 377.278125 
L 601.810179 377.278125 
z
" clip-path="url(#p44728eb510)" style="fill: #660000"/>
   </g>
   <g id="matplotlib.axis_3">
    <g id="xtick_9">
     <g id="line2d_14">
      <g>
       <use xlink:href="#mf641da2834" x="108.03375" y="377.278125" style="stroke: #000000; stroke-width: 0.8"/>
      </g>
     </g>
     <g id="text_23">
      <!-- 18-29 -->
      <g transform="translate(93.504844 391.876562) scale(0.1 -0.1)">
       <use xlink:href="#DejaVuSans-31"/>
       <use xlink:href="#DejaVuSans-38" x="63.623047"/>
       <use xlink:href="#DejaVuSans-2d" x="127.246094"/>
       <use xlink:href="#DejaVuSans-32" x="163.330078"/>
       <use xlink:href="#DejaVuSans-39" x="226.953125"/>
      </g>
     </g>
    </g>
    <g id="xtick_10">
     <g id="line2d_15">
      <g>
       <use xlink:href="#mf641da2834" x="183.419464" y="377.278125" style="stroke: #000000; stroke-width: 0.8"/>
      </g>
     </g>
     <g id="text_24">
      <!-- 30-39 -->
      <g transform="translate(168.890558 391.876562) scale(0.1 -0.1)">
       <use xlink:href="#DejaVuSans-33"/>
       <use xlink:href="#DejaVuSans-30" x="63.623047"/>
       <use xlink:href="#DejaVuSans-2d" x="127.246094"/>
       <use xlink:href="#DejaVuSans-33" x="163.330078"/>
       <use xlink:href="#DejaVuSans-39" x="226.953125"/>
      </g>
     </g>
    </g>
    <g id="xtick_11">
     <g id="line2d_16">
      <g>
       <use xlink:href="#mf641da2834" x="258.805179" y="377.278125" style="stroke: #000000; stroke-width: 0.8"/>
      </g>
     </g>
     <g id="text_25">
      <!-- 40-49 -->
      <g transform="translate(244.276272 391.876562) scale(0.1 -0.1)">
       <use xlink:href="#DejaVuSans-34"/>
       <use xlink:href="#DejaVuSans-30" x="63.623047"/>
       <use xlink:href="#DejaVuSans-2d" x="127.246094"/>
       <use xlink:href="#DejaVuSans-34" x="163.330078"/>
       <use xlink:href="#DejaVuSans-39" x="226.953125"/>
      </g>
     </g>
    </g>
    <g id="xtick_12">
     <g id="line2d_17">
      <g>
       <use xlink:href="#mf641da2834" x="334.190893" y="377.278125" style="stroke: #000000; stroke-width: 0.8"/>
      </g>
     </g>
     <g id="text_26">
      <!-- 50-59 -->
      <g transform="translate(319.661987 391.876562) scale(0.1 -0.1)">
       <use xlink:href="#DejaVuSans-35"/>
       <use xlink:href="#DejaVuSans-30" x="63.623047"/>
       <use xlink:href="#DejaVuSans-2d" x="127.246094"/>
       <use xlink:href="#DejaVuSans-35" x="163.330078"/>
       <use xlink:href="#DejaVuSans-39" x="226.953125"/>
      </g>
     </g>
    </g>
    <g id="xtick_13">
     <g id="line2d_18">
      <g>
       <use xlink:href="#mf641da2834" x="409.576607" y="377.278125" style="stroke: #000000; stroke-width: 0.8"/>
      </g>
     </g>
     <g id="text_27">
      <!-- 60-69 -->
      <g transform="translate(395.047701 391.876562) scale(0.1 -0.1)">
       <use xlink:href="#DejaVuSans-36"/>
       <use xlink:href="#DejaVuSans-30" x="63.623047"/>
       <use xlink:href="#DejaVuSans-2d" x="127.246094"/>
       <use xlink:href="#DejaVuSans-36" x="163.330078"/>
       <use xlink:href="#DejaVuSans-39" x="226.953125"/>
      </g>
     </g>
    </g>
    <g id="xtick_14">
     <g id="line2d_19">
      <g>
       <use xlink:href="#mf641da2834" x="484.962321" y="377.278125" style="stroke: #000000; stroke-width: 0.8"/>
      </g>
     </g>
     <g id="text_28">
      <!-- 70-79 -->
      <g transform="translate(470.433415 391.876562) scale(0.1 -0.1)">
       <use xlink:href="#DejaVuSans-37"/>
       <use xlink:href="#DejaVuSans-30" x="63.623047"/>
       <use xlink:href="#DejaVuSans-2d" x="127.246094"/>
       <use xlink:href="#DejaVuSans-37" x="163.330078"/>
       <use xlink:href="#DejaVuSans-39" x="226.953125"/>
      </g>
     </g>
    </g>
    <g id="xtick_15">
     <g id="line2d_20">
      <g>
       <use xlink:href="#mf641da2834" x="560.348036" y="377.278125" style="stroke: #000000; stroke-width: 0.8"/>
      </g>
     </g>
     <g id="text_29">
      <!-- 80-89 -->
      <g transform="translate(545.819129 391.876562) scale(0.1 -0.1)">
       <use xlink:href="#DejaVuSans-38"/>
       <use xlink:href="#DejaVuSans-30" x="63.623047"/>
       <use xlink:href="#DejaVuSans-2d" x="127.246094"/>
       <use xlink:href="#DejaVuSans-38" x="163.330078"/>
       <use xlink:href="#DejaVuSans-39" x="226.953125"/>
      </g>
     </g>
    </g>
    <g id="xtick_16">
     <g id="line2d_21">
      <g>
       <use xlink:href="#mf641da2834" x="635.73375" y="377.278125" style="stroke: #000000; stroke-width: 0.8"/>
      </g>
     </g>
     <g id="text_30">
      <!-- 90-99 -->
      <g transform="translate(621.204844 391.876562) scale(0.1 -0.1)">
       <use xlink:href="#DejaVuSans-39"/>
       <use xlink:href="#DejaVuSans-30" x="63.623047"/>
       <use xlink:href="#DejaVuSans-2d" x="127.246094"/>
       <use xlink:href="#DejaVuSans-39" x="163.330078"/>
       <use xlink:href="#DejaVuSans-39" x="226.953125"/>
      </g>
     </g>
    </g>
    <g id="text_31">
     <!-- Age Group -->
     <g transform="translate(340.108125 407.074375) scale(0.12 -0.12)">
      <use xlink:href="#DejaVuSans-41"/>
      <use xlink:href="#DejaVuSans-67" x="68.408203"/>
      <use xlink:href="#DejaVuSans-65" x="131.884766"/>
      <use xlink:href="#DejaVuSans-20" x="193.408203"/>
      <use xlink:href="#DejaVuSans-47" x="225.195312"/>
      <use xlink:href="#DejaVuSans-72" x="302.685547"/>
      <use xlink:href="#DejaVuSans-6f" x="341.548828"/>
      <use xlink:href="#DejaVuSans-75" x="402.730469"/>
      <use xlink:href="#DejaVuSans-70" x="466.109375"/>
     </g>
    </g>
   </g>
   <g id="matplotlib.axis_4">
    <g id="ytick_6">
     <g id="line2d_22">
      <g>
       <use xlink:href="#ma74061a692" x="55.26375" y="377.278125" style="stroke: #000000; stroke-width: 0.8"/>
      </g>
     </g>
     <g id="text_32">
      <!-- 0.0 -->
      <g transform="translate(32.360625 381.077344) scale(0.1 -0.1)">
       <defs>
        <path id="DejaVuSans-2e" d="M 684 794 
L 1344 794 
L 1344 0 
L 684 0 
L 684 794 
z
" transform="scale(0.015625)"/>
       </defs>
       <use xlink:href="#DejaVuSans-30"/>
       <use xlink:href="#DejaVuSans-2e" x="63.623047"/>
       <use xlink:href="#DejaVuSans-30" x="95.410156"/>
      </g>
     </g>
    </g>
    <g id="ytick_7">
     <g id="line2d_23">
      <g>
       <use xlink:href="#ma74061a692" x="55.26375" y="350.238125" style="stroke: #000000; stroke-width: 0.8"/>
      </g>
     </g>
     <g id="text_33">
      <!-- 0.2 -->
      <g transform="translate(32.360625 354.037344) scale(0.1 -0.1)">
       <use xlink:href="#DejaVuSans-30"/>
       <use xlink:href="#DejaVuSans-2e" x="63.623047"/>
       <use xlink:href="#DejaVuSans-32" x="95.410156"/>
      </g>
     </g>
    </g>
    <g id="ytick_8">
     <g id="line2d_24">
      <g>
       <use xlink:href="#ma74061a692" x="55.26375" y="323.198125" style="stroke: #000000; stroke-width: 0.8"/>
      </g>
     </g>
     <g id="text_34">
      <!-- 0.4 -->
      <g transform="translate(32.360625 326.997344) scale(0.1 -0.1)">
       <use xlink:href="#DejaVuSans-30"/>
       <use xlink:href="#DejaVuSans-2e" x="63.623047"/>
       <use xlink:href="#DejaVuSans-34" x="95.410156"/>
      </g>
     </g>
    </g>
    <g id="ytick_9">
     <g id="line2d_25">
      <g>
       <use xlink:href="#ma74061a692" x="55.26375" y="296.158125" style="stroke: #000000; stroke-width: 0.8"/>
      </g>
     </g>
     <g id="text_35">
      <!-- 0.6 -->
      <g transform="translate(32.360625 299.957344) scale(0.1 -0.1)">
       <use xlink:href="#DejaVuSans-30"/>
       <use xlink:href="#DejaVuSans-2e" x="63.623047"/>
       <use xlink:href="#DejaVuSans-36" x="95.410156"/>
      </g>
     </g>
    </g>
    <g id="ytick_10">
     <g id="line2d_26">
      <g>
       <use xlink:href="#ma74061a692" x="55.26375" y="269.118125" style="stroke: #000000; stroke-width: 0.8"/>
      </g>
     </g>
     <g id="text_36">
      <!-- 0.8 -->
      <g transform="translate(32.360625 272.917344) scale(0.1 -0.1)">
       <use xlink:href="#DejaVuSans-30"/>
       <use xlink:href="#DejaVuSans-2e" x="63.623047"/>
       <use xlink:href="#DejaVuSans-38" x="95.410156"/>
      </g>
     </g>
    </g>
    <g id="ytick_11">
     <g id="line2d_27">
      <g>
       <use xlink:href="#ma74061a692" x="55.26375" y="242.078125" style="stroke: #000000; stroke-width: 0.8"/>
      </g>
     </g>
     <g id="text_37">
      <!-- 1.0 -->
      <g transform="translate(32.360625 245.877344) scale(0.1 -0.1)">
       <use xlink:href="#DejaVuSans-31"/>
       <use xlink:href="#DejaVuSans-2e" x="63.623047"/>
       <use xlink:href="#DejaVuSans-30" x="95.410156"/>
      </g>
     </g>
    </g>
    <g id="text_38">
     <!-- Percentage -->
     <g transform="translate(16.318125 340.045312) rotate(-90) scale(0.12 -0.12)">
      <use xlink:href="#DejaVuSans-50"/>
      <use xlink:href="#DejaVuSans-65" x="56.677734"/>
      <use xlink:href="#DejaVuSans-72" x="118.201172"/>
      <use xlink:href="#DejaVuSans-63" x="157.064453"/>
      <use xlink:href="#DejaVuSans-65" x="212.044922"/>
      <use xlink:href="#DejaVuSans-6e" x="273.568359"/>
      <use xlink:href="#DejaVuSans-74" x="336.947266"/>
      <use xlink:href="#DejaVuSans-61" x="376.15625"/>
      <use xlink:href="#DejaVuSans-67" x="437.435547"/>
      <use xlink:href="#DejaVuSans-65" x="500.912109"/>
     </g>
    </g>
   </g>
   <g id="patch_111">
    <path d="M 55.26375 377.278125 
L 55.26375 235.318125 
" style="fill: none; stroke: #000000; stroke-width: 0.8; stroke-linejoin: miter; stroke-linecap: square"/>
   </g>
   <g id="patch_112">
    <path d="M 688.50375 377.278125 
L 688.50375 235.318125 
" style="fill: none; stroke: #000000; stroke-width: 0.8; stroke-linejoin: miter; stroke-linecap: square"/>
   </g>
   <g id="patch_113">
    <path d="M 55.26375 377.278125 
L 688.50375 377.278125 
" style="fill: none; stroke: #000000; stroke-width: 0.8; stroke-linejoin: miter; stroke-linecap: square"/>
   </g>
   <g id="patch_114">
    <path d="M 55.26375 235.318125 
L 688.50375 235.318125 
" style="fill: none; stroke: #000000; stroke-width: 0.8; stroke-linejoin: miter; stroke-linecap: square"/>
   </g>
   <g id="text_39">
    <!-- Prevalence of ckd_stage by Age Group (Normalized) -->
    <g transform="translate(215.566875 229.318125) scale(0.12 -0.12)">
     <defs>
      <path id="DejaVuSans-28" d="M 1984 4856 
Q 1566 4138 1362 3434 
Q 1159 2731 1159 2009 
Q 1159 1288 1364 580 
Q 1569 -128 1984 -844 
L 1484 -844 
Q 1016 -109 783 600 
Q 550 1309 550 2009 
Q 550 2706 781 3412 
Q 1013 4119 1484 4856 
L 1984 4856 
z
" transform="scale(0.015625)"/>
      <path id="DejaVuSans-4e" d="M 628 4666 
L 1478 4666 
L 3547 763 
L 3547 4666 
L 4159 4666 
L 4159 0 
L 3309 0 
L 1241 3903 
L 1241 0 
L 628 0 
L 628 4666 
z
" transform="scale(0.015625)"/>
      <path id="DejaVuSans-6d" d="M 3328 2828 
Q 3544 3216 3844 3400 
Q 4144 3584 4550 3584 
Q 5097 3584 5394 3201 
Q 5691 2819 5691 2113 
L 5691 0 
L 5113 0 
L 5113 2094 
Q 5113 2597 4934 2840 
Q 4756 3084 4391 3084 
Q 3944 3084 3684 2787 
Q 3425 2491 3425 1978 
L 3425 0 
L 2847 0 
L 2847 2094 
Q 2847 2600 2669 2842 
Q 2491 3084 2119 3084 
Q 1678 3084 1418 2786 
Q 1159 2488 1159 1978 
L 1159 0 
L 581 0 
L 581 3500 
L 1159 3500 
L 1159 2956 
Q 1356 3278 1631 3431 
Q 1906 3584 2284 3584 
Q 2666 3584 2933 3390 
Q 3200 3197 3328 2828 
z
" transform="scale(0.015625)"/>
      <path id="DejaVuSans-69" d="M 603 3500 
L 1178 3500 
L 1178 0 
L 603 0 
L 603 3500 
z
M 603 4863 
L 1178 4863 
L 1178 4134 
L 603 4134 
L 603 4863 
z
" transform="scale(0.015625)"/>
      <path id="DejaVuSans-7a" d="M 353 3500 
L 3084 3500 
L 3084 2975 
L 922 459 
L 3084 459 
L 3084 0 
L 275 0 
L 275 525 
L 2438 3041 
L 353 3041 
L 353 3500 
z
" transform="scale(0.015625)"/>
      <path id="DejaVuSans-29" d="M 513 4856 
L 1013 4856 
Q 1481 4119 1714 3412 
Q 1947 2706 1947 2009 
Q 1947 1309 1714 600 
Q 1481 -109 1013 -844 
L 513 -844 
Q 928 -128 1133 580 
Q 1338 1288 1338 2009 
Q 1338 2731 1133 3434 
Q 928 4138 513 4856 
z
" transform="scale(0.015625)"/>
     </defs>
     <use xlink:href="#DejaVuSans-50"/>
     <use xlink:href="#DejaVuSans-72" x="58.552734"/>
     <use xlink:href="#DejaVuSans-65" x="97.416016"/>
     <use xlink:href="#DejaVuSans-76" x="158.939453"/>
     <use xlink:href="#DejaVuSans-61" x="218.119141"/>
     <use xlink:href="#DejaVuSans-6c" x="279.398438"/>
     <use xlink:href="#DejaVuSans-65" x="307.181641"/>
     <use xlink:href="#DejaVuSans-6e" x="368.705078"/>
     <use xlink:href="#DejaVuSans-63" x="432.083984"/>
     <use xlink:href="#DejaVuSans-65" x="487.064453"/>
     <use xlink:href="#DejaVuSans-20" x="548.587891"/>
     <use xlink:href="#DejaVuSans-6f" x="580.375"/>
     <use xlink:href="#DejaVuSans-66" x="641.556641"/>
     <use xlink:href="#DejaVuSans-20" x="676.761719"/>
     <use xlink:href="#DejaVuSans-63" x="708.548828"/>
     <use xlink:href="#DejaVuSans-6b" x="763.529297"/>
     <use xlink:href="#DejaVuSans-64" x="821.439453"/>
     <use xlink:href="#DejaVuSans-5f" x="884.916016"/>
     <use xlink:href="#DejaVuSans-73" x="934.916016"/>
     <use xlink:href="#DejaVuSans-74" x="987.015625"/>
     <use xlink:href="#DejaVuSans-61" x="1026.224609"/>
     <use xlink:href="#DejaVuSans-67" x="1087.503906"/>
     <use xlink:href="#DejaVuSans-65" x="1150.980469"/>
     <use xlink:href="#DejaVuSans-20" x="1212.503906"/>
     <use xlink:href="#DejaVuSans-62" x="1244.291016"/>
     <use xlink:href="#DejaVuSans-79" x="1307.767578"/>
     <use xlink:href="#DejaVuSans-20" x="1366.947266"/>
     <use xlink:href="#DejaVuSans-41" x="1398.734375"/>
     <use xlink:href="#DejaVuSans-67" x="1467.142578"/>
     <use xlink:href="#DejaVuSans-65" x="1530.619141"/>
     <use xlink:href="#DejaVuSans-20" x="1592.142578"/>
     <use xlink:href="#DejaVuSans-47" x="1623.929688"/>
     <use xlink:href="#DejaVuSans-72" x="1701.419922"/>
     <use xlink:href="#DejaVuSans-6f" x="1740.283203"/>
     <use xlink:href="#DejaVuSans-75" x="1801.464844"/>
     <use xlink:href="#DejaVuSans-70" x="1864.84375"/>
     <use xlink:href="#DejaVuSans-20" x="1928.320312"/>
     <use xlink:href="#DejaVuSans-28" x="1960.107422"/>
     <use xlink:href="#DejaVuSans-4e" x="1999.121094"/>
     <use xlink:href="#DejaVuSans-6f" x="2073.925781"/>
     <use xlink:href="#DejaVuSans-72" x="2135.107422"/>
     <use xlink:href="#DejaVuSans-6d" x="2174.470703"/>
     <use xlink:href="#DejaVuSans-61" x="2271.882812"/>
     <use xlink:href="#DejaVuSans-6c" x="2333.162109"/>
     <use xlink:href="#DejaVuSans-69" x="2360.945312"/>
     <use xlink:href="#DejaVuSans-7a" x="2388.728516"/>
     <use xlink:href="#DejaVuSans-65" x="2441.21875"/>
     <use xlink:href="#DejaVuSans-64" x="2502.742188"/>
     <use xlink:href="#DejaVuSans-29" x="2566.21875"/>
    </g>
   </g>
   <g id="legend_2">
    <g id="patch_115">
     <path d="M 63.66375 371.278125 
L 185.11125 371.278125 
Q 187.51125 371.278125 187.51125 368.878125 
L 187.51125 264.395625 
Q 187.51125 261.995625 185.11125 261.995625 
L 63.66375 261.995625 
Q 61.26375 261.995625 61.26375 264.395625 
L 61.26375 368.878125 
Q 61.26375 371.278125 63.66375 371.278125 
z
" style="fill: #ffffff; opacity: 0.8; stroke: #cccccc; stroke-linejoin: miter"/>
    </g>
    <g id="patch_116">
     <path d="M 66.06375 275.91375 
L 90.06375 275.91375 
L 90.06375 267.51375 
L 66.06375 267.51375 
z
" style="fill: #00bfc4"/>
    </g>
    <g id="text_40">
     <!-- CKD Stage 1 -->
     <g transform="translate(99.66375 275.91375) scale(0.12 -0.12)">
      <use xlink:href="#DejaVuSans-43"/>
      <use xlink:href="#DejaVuSans-4b" x="69.824219"/>
      <use xlink:href="#DejaVuSans-44" x="135.400391"/>
      <use xlink:href="#DejaVuSans-20" x="212.402344"/>
      <use xlink:href="#DejaVuSans-53" x="244.189453"/>
      <use xlink:href="#DejaVuSans-74" x="307.666016"/>
      <use xlink:href="#DejaVuSans-61" x="346.875"/>
      <use xlink:href="#DejaVuSans-67" x="408.154297"/>
      <use xlink:href="#DejaVuSans-65" x="471.630859"/>
      <use xlink:href="#DejaVuSans-20" x="533.154297"/>
      <use xlink:href="#DejaVuSans-31" x="564.941406"/>
     </g>
    </g>
    <g id="patch_117">
     <path d="M 66.06375 293.5275 
L 90.06375 293.5275 
L 90.06375 285.1275 
L 66.06375 285.1275 
z
" style="fill: #f8766d"/>
    </g>
    <g id="text_41">
     <!-- CKD Stage 2 -->
     <g transform="translate(99.66375 293.5275) scale(0.12 -0.12)">
      <use xlink:href="#DejaVuSans-43"/>
      <use xlink:href="#DejaVuSans-4b" x="69.824219"/>
      <use xlink:href="#DejaVuSans-44" x="135.400391"/>
      <use xlink:href="#DejaVuSans-20" x="212.402344"/>
      <use xlink:href="#DejaVuSans-53" x="244.189453"/>
      <use xlink:href="#DejaVuSans-74" x="307.666016"/>
      <use xlink:href="#DejaVuSans-61" x="346.875"/>
      <use xlink:href="#DejaVuSans-67" x="408.154297"/>
      <use xlink:href="#DejaVuSans-65" x="471.630859"/>
      <use xlink:href="#DejaVuSans-20" x="533.154297"/>
      <use xlink:href="#DejaVuSans-32" x="564.941406"/>
     </g>
    </g>
    <g id="patch_118">
     <path d="M 66.06375 311.14125 
L 90.06375 311.14125 
L 90.06375 302.74125 
L 66.06375 302.74125 
z
" style="fill: #ffcccc"/>
    </g>
    <g id="text_42">
     <!-- CKD Stage 3a -->
     <g transform="translate(99.66375 311.14125) scale(0.12 -0.12)">
      <use xlink:href="#DejaVuSans-43"/>
      <use xlink:href="#DejaVuSans-4b" x="69.824219"/>
      <use xlink:href="#DejaVuSans-44" x="135.400391"/>
      <use xlink:href="#DejaVuSans-20" x="212.402344"/>
      <use xlink:href="#DejaVuSans-53" x="244.189453"/>
      <use xlink:href="#DejaVuSans-74" x="307.666016"/>
      <use xlink:href="#DejaVuSans-61" x="346.875"/>
      <use xlink:href="#DejaVuSans-67" x="408.154297"/>
      <use xlink:href="#DejaVuSans-65" x="471.630859"/>
      <use xlink:href="#DejaVuSans-20" x="533.154297"/>
      <use xlink:href="#DejaVuSans-33" x="564.941406"/>
      <use xlink:href="#DejaVuSans-61" x="628.564453"/>
     </g>
    </g>
    <g id="patch_119">
     <path d="M 66.06375 328.755 
L 90.06375 328.755 
L 90.06375 320.355 
L 66.06375 320.355 
z
" style="fill: #ff6666"/>
    </g>
    <g id="text_43">
     <!-- CKD Stage 3b -->
     <g transform="translate(99.66375 328.755) scale(0.12 -0.12)">
      <use xlink:href="#DejaVuSans-43"/>
      <use xlink:href="#DejaVuSans-4b" x="69.824219"/>
      <use xlink:href="#DejaVuSans-44" x="135.400391"/>
      <use xlink:href="#DejaVuSans-20" x="212.402344"/>
      <use xlink:href="#DejaVuSans-53" x="244.189453"/>
      <use xlink:href="#DejaVuSans-74" x="307.666016"/>
      <use xlink:href="#DejaVuSans-61" x="346.875"/>
      <use xlink:href="#DejaVuSans-67" x="408.154297"/>
      <use xlink:href="#DejaVuSans-65" x="471.630859"/>
      <use xlink:href="#DejaVuSans-20" x="533.154297"/>
      <use xlink:href="#DejaVuSans-33" x="564.941406"/>
      <use xlink:href="#DejaVuSans-62" x="628.564453"/>
     </g>
    </g>
    <g id="patch_120">
     <path d="M 66.06375 346.36875 
L 90.06375 346.36875 
L 90.06375 337.96875 
L 66.06375 337.96875 
z
" style="fill: #cc0000"/>
    </g>
    <g id="text_44">
     <!-- CKD Stage 4 -->
     <g transform="translate(99.66375 346.36875) scale(0.12 -0.12)">
      <use xlink:href="#DejaVuSans-43"/>
      <use xlink:href="#DejaVuSans-4b" x="69.824219"/>
      <use xlink:href="#DejaVuSans-44" x="135.400391"/>
      <use xlink:href="#DejaVuSans-20" x="212.402344"/>
      <use xlink:href="#DejaVuSans-53" x="244.189453"/>
      <use xlink:href="#DejaVuSans-74" x="307.666016"/>
      <use xlink:href="#DejaVuSans-61" x="346.875"/>
      <use xlink:href="#DejaVuSans-67" x="408.154297"/>
      <use xlink:href="#DejaVuSans-65" x="471.630859"/>
      <use xlink:href="#DejaVuSans-20" x="533.154297"/>
      <use xlink:href="#DejaVuSans-34" x="564.941406"/>
     </g>
    </g>
    <g id="patch_121">
     <path d="M 66.06375 363.9825 
L 90.06375 363.9825 
L 90.06375 355.5825 
L 66.06375 355.5825 
z
" style="fill: #660000"/>
    </g>
    <g id="text_45">
     <!-- CKD Stage 5 -->
     <g transform="translate(99.66375 363.9825) scale(0.12 -0.12)">
      <use xlink:href="#DejaVuSans-43"/>
      <use xlink:href="#DejaVuSans-4b" x="69.824219"/>
      <use xlink:href="#DejaVuSans-44" x="135.400391"/>
      <use xlink:href="#DejaVuSans-20" x="212.402344"/>
      <use xlink:href="#DejaVuSans-53" x="244.189453"/>
      <use xlink:href="#DejaVuSans-74" x="307.666016"/>
      <use xlink:href="#DejaVuSans-61" x="346.875"/>
      <use xlink:href="#DejaVuSans-67" x="408.154297"/>
      <use xlink:href="#DejaVuSans-65" x="471.630859"/>
      <use xlink:href="#DejaVuSans-20" x="533.154297"/>
      <use xlink:href="#DejaVuSans-35" x="564.941406"/>
     </g>
    </g>
   </g>
  </g>
 </g>
 <defs>
  <clipPath id="p856ca1bb3a">
   <rect x="55.26375" y="22.318125" width="633.24" height="141.96"/>
  </clipPath>
  <clipPath id="p44728eb510">
   <rect x="55.26375" y="235.318125" width="633.24" height="141.96"/>
  </clipPath>
 </defs>
</svg>
