<svg width="1953" height="526" xmlns="http://www.w3.org/2000/svg" xmlns:xlink="http://www.w3.org/1999/xlink" xml:space="preserve" overflow="hidden"><defs><filter id="fx0" x="-10%" y="-10%" width="120%" height="120%" filterUnits="userSpaceOnUse" primitiveUnits="userSpaceOnUse"><feComponentTransfer color-interpolation-filters="sRGB"><feFuncR type="discrete" tableValues="0 0"/><feFuncG type="discrete" tableValues="0 0"/><feFuncB type="discrete" tableValues="0 0"/><feFuncA type="linear" slope="0.501961" intercept="0"/></feComponentTransfer><feGaussianBlur stdDeviation="6.875 6.875"/></filter><clipPath id="clip1"><rect x="853" y="34" width="1953" height="526"/></clipPath><clipPath id="clip2"><rect x="23" y="-3" width="630" height="453"/></clipPath></defs><g clip-path="url(#clip1)" transform="translate(-853 -34)"><g clip-path="url(#clip2)" filter="url(#fx0)" transform="translate(852 85)"><g><path d="M0.860006-1.22898 558.056 388.681 556.336 391.139-0.860006 1.22898ZM561.324 376.017 575.972 403.049 545.557 398.548Z" fill="#FF0000" transform="matrix(-1 0 0 1 625.472 23.3749)"/></g></g><path d="M0.985423-1.40821 558.181 388.502 556.21 391.318-0.985423 1.40821ZM561.324 376.017 575.972 403.049 545.557 398.548Z" fill="#FF0000" transform="matrix(-1 0 0 1 1477.47 101.5)"/><rect x="1476.5" y="35.4999" width="1328" height="131" stroke="#FF0000" stroke-width="3.4375" stroke-linejoin="round" stroke-miterlimit="10" fill="none"/><text fill="#595959" font-family="Arial,Arial_MSFontService,sans-serif" font-weight="700" font-size="55" transform="matrix(1 0 0 1 1555.88 121)">randomly generated (anonymized) patient ids</text></g></svg>